<?xml version="1.0" encoding="utf-8" standalone="no"?>
<!DOCTYPE svg PUBLIC "-//W3C//DTD SVG 1.1//EN"
  "http://www.w3.org/Graphics/SVG/1.1/DTD/svg11.dtd">
<!-- Created with matplotlib (http://matplotlib.org/) -->
<svg height="345pt" version="1.1" viewBox="0 0 460 345" width="460pt" xmlns="http://www.w3.org/2000/svg" xmlns:xlink="http://www.w3.org/1999/xlink">
 <defs>
  <style type="text/css">
*{stroke-linecap:butt;stroke-linejoin:round;}
  </style>
 </defs>
 <g id="figure_1">
  <g id="patch_1">
   <path d="M 0 345.6 
L 460.8 345.6 
L 460.8 0 
L 0 0 
z
" style="fill:#ffffff;"/>
  </g>
  <g id="axes_1">
   <g id="patch_2">
    <path d="M 57.6 307.584 
L 414.72 307.584 
L 414.72 41.472 
L 57.6 41.472 
z
" style="fill:#ffffff;"/>
   </g>
   <g id="matplotlib.axis_1">
    <g id="xtick_1">
     <g id="line2d_1">
      <path clip-path="url(#p552bbbfa0b)" d="M 73.832727 307.584 
L 73.832727 41.472 
" style="fill:none;stroke:#b0b0b0;stroke-linecap:square;stroke-width:0.8;"/>
     </g>
     <g id="line2d_2">
      <defs>
       <path d="M 0 0 
L 0 3.5 
" id="m6520c9e23e" style="stroke:#000000;stroke-width:0.8;"/>
      </defs>
      <g>
       <use style="stroke:#000000;stroke-width:0.8;" x="73.832727" xlink:href="#m6520c9e23e" y="307.584"/>
      </g>
     </g>
     <g id="text_1">
      <!-- 0 -->
      <defs>
       <path d="M 31.78125 66.40625 
Q 24.171875 66.40625 20.328125 58.90625 
Q 16.5 51.421875 16.5 36.375 
Q 16.5 21.390625 20.328125 13.890625 
Q 24.171875 6.390625 31.78125 6.390625 
Q 39.453125 6.390625 43.28125 13.890625 
Q 47.125 21.390625 47.125 36.375 
Q 47.125 51.421875 43.28125 58.90625 
Q 39.453125 66.40625 31.78125 66.40625 
M 31.78125 74.21875 
Q 44.046875 74.21875 50.515625 64.515625 
Q 56.984375 54.828125 56.984375 36.375 
Q 56.984375 17.96875 50.515625 8.265625 
Q 44.046875 -1.421875 31.78125 -1.421875 
Q 19.53125 -1.421875 13.0625 8.265625 
Q 6.59375 17.96875 6.59375 36.375 
Q 6.59375 54.828125 13.0625 64.515625 
Q 19.53125 74.21875 31.78125 74.21875 
" id="DejaVuSans-30"/>
      </defs>
      <g transform="translate(70.651477 322.182437)scale(0.1 -0.1)">
       <use xlink:href="#DejaVuSans-30"/>
      </g>
     </g>
    </g>
    <g id="xtick_2">
     <g id="line2d_3">
      <path clip-path="url(#p552bbbfa0b)" d="M 128.122785 307.584 
L 128.122785 41.472 
" style="fill:none;stroke:#b0b0b0;stroke-linecap:square;stroke-width:0.8;"/>
     </g>
     <g id="line2d_4">
      <g>
       <use style="stroke:#000000;stroke-width:0.8;" x="128.122785" xlink:href="#m6520c9e23e" y="307.584"/>
      </g>
     </g>
     <g id="text_2">
      <!-- 50 -->
      <defs>
       <path d="M 10.796875 72.90625 
L 49.515625 72.90625 
L 49.515625 64.59375 
L 19.828125 64.59375 
L 19.828125 46.734375 
Q 21.96875 47.46875 24.109375 47.828125 
Q 26.265625 48.1875 28.421875 48.1875 
Q 40.625 48.1875 47.75 41.5 
Q 54.890625 34.8125 54.890625 23.390625 
Q 54.890625 11.625 47.5625 5.09375 
Q 40.234375 -1.421875 26.90625 -1.421875 
Q 22.3125 -1.421875 17.546875 -0.640625 
Q 12.796875 0.140625 7.71875 1.703125 
L 7.71875 11.625 
Q 12.109375 9.234375 16.796875 8.0625 
Q 21.484375 6.890625 26.703125 6.890625 
Q 35.15625 6.890625 40.078125 11.328125 
Q 45.015625 15.765625 45.015625 23.390625 
Q 45.015625 31 40.078125 35.4375 
Q 35.15625 39.890625 26.703125 39.890625 
Q 22.75 39.890625 18.8125 39.015625 
Q 14.890625 38.140625 10.796875 36.28125 
z
" id="DejaVuSans-35"/>
      </defs>
      <g transform="translate(121.760285 322.182437)scale(0.1 -0.1)">
       <use xlink:href="#DejaVuSans-35"/>
       <use x="63.623047" xlink:href="#DejaVuSans-30"/>
      </g>
     </g>
    </g>
    <g id="xtick_3">
     <g id="line2d_5">
      <path clip-path="url(#p552bbbfa0b)" d="M 182.412843 307.584 
L 182.412843 41.472 
" style="fill:none;stroke:#b0b0b0;stroke-linecap:square;stroke-width:0.8;"/>
     </g>
     <g id="line2d_6">
      <g>
       <use style="stroke:#000000;stroke-width:0.8;" x="182.412843" xlink:href="#m6520c9e23e" y="307.584"/>
      </g>
     </g>
     <g id="text_3">
      <!-- 100 -->
      <defs>
       <path d="M 12.40625 8.296875 
L 28.515625 8.296875 
L 28.515625 63.921875 
L 10.984375 60.40625 
L 10.984375 69.390625 
L 28.421875 72.90625 
L 38.28125 72.90625 
L 38.28125 8.296875 
L 54.390625 8.296875 
L 54.390625 0 
L 12.40625 0 
z
" id="DejaVuSans-31"/>
      </defs>
      <g transform="translate(172.869093 322.182437)scale(0.1 -0.1)">
       <use xlink:href="#DejaVuSans-31"/>
       <use x="63.623047" xlink:href="#DejaVuSans-30"/>
       <use x="127.246094" xlink:href="#DejaVuSans-30"/>
      </g>
     </g>
    </g>
    <g id="xtick_4">
     <g id="line2d_7">
      <path clip-path="url(#p552bbbfa0b)" d="M 236.702901 307.584 
L 236.702901 41.472 
" style="fill:none;stroke:#b0b0b0;stroke-linecap:square;stroke-width:0.8;"/>
     </g>
     <g id="line2d_8">
      <g>
       <use style="stroke:#000000;stroke-width:0.8;" x="236.702901" xlink:href="#m6520c9e23e" y="307.584"/>
      </g>
     </g>
     <g id="text_4">
      <!-- 150 -->
      <g transform="translate(227.159151 322.182437)scale(0.1 -0.1)">
       <use xlink:href="#DejaVuSans-31"/>
       <use x="63.623047" xlink:href="#DejaVuSans-35"/>
       <use x="127.246094" xlink:href="#DejaVuSans-30"/>
      </g>
     </g>
    </g>
    <g id="xtick_5">
     <g id="line2d_9">
      <path clip-path="url(#p552bbbfa0b)" d="M 290.992958 307.584 
L 290.992958 41.472 
" style="fill:none;stroke:#b0b0b0;stroke-linecap:square;stroke-width:0.8;"/>
     </g>
     <g id="line2d_10">
      <g>
       <use style="stroke:#000000;stroke-width:0.8;" x="290.992958" xlink:href="#m6520c9e23e" y="307.584"/>
      </g>
     </g>
     <g id="text_5">
      <!-- 200 -->
      <defs>
       <path d="M 19.1875 8.296875 
L 53.609375 8.296875 
L 53.609375 0 
L 7.328125 0 
L 7.328125 8.296875 
Q 12.9375 14.109375 22.625 23.890625 
Q 32.328125 33.6875 34.8125 36.53125 
Q 39.546875 41.84375 41.421875 45.53125 
Q 43.3125 49.21875 43.3125 52.78125 
Q 43.3125 58.59375 39.234375 62.25 
Q 35.15625 65.921875 28.609375 65.921875 
Q 23.96875 65.921875 18.8125 64.3125 
Q 13.671875 62.703125 7.8125 59.421875 
L 7.8125 69.390625 
Q 13.765625 71.78125 18.9375 73 
Q 24.125 74.21875 28.421875 74.21875 
Q 39.75 74.21875 46.484375 68.546875 
Q 53.21875 62.890625 53.21875 53.421875 
Q 53.21875 48.921875 51.53125 44.890625 
Q 49.859375 40.875 45.40625 35.40625 
Q 44.1875 33.984375 37.640625 27.21875 
Q 31.109375 20.453125 19.1875 8.296875 
" id="DejaVuSans-32"/>
      </defs>
      <g transform="translate(281.449208 322.182437)scale(0.1 -0.1)">
       <use xlink:href="#DejaVuSans-32"/>
       <use x="63.623047" xlink:href="#DejaVuSans-30"/>
       <use x="127.246094" xlink:href="#DejaVuSans-30"/>
      </g>
     </g>
    </g>
    <g id="xtick_6">
     <g id="line2d_11">
      <path clip-path="url(#p552bbbfa0b)" d="M 345.283016 307.584 
L 345.283016 41.472 
" style="fill:none;stroke:#b0b0b0;stroke-linecap:square;stroke-width:0.8;"/>
     </g>
     <g id="line2d_12">
      <g>
       <use style="stroke:#000000;stroke-width:0.8;" x="345.283016" xlink:href="#m6520c9e23e" y="307.584"/>
      </g>
     </g>
     <g id="text_6">
      <!-- 250 -->
      <g transform="translate(335.739266 322.182437)scale(0.1 -0.1)">
       <use xlink:href="#DejaVuSans-32"/>
       <use x="63.623047" xlink:href="#DejaVuSans-35"/>
       <use x="127.246094" xlink:href="#DejaVuSans-30"/>
      </g>
     </g>
    </g>
    <g id="xtick_7">
     <g id="line2d_13">
      <path clip-path="url(#p552bbbfa0b)" d="M 399.573074 307.584 
L 399.573074 41.472 
" style="fill:none;stroke:#b0b0b0;stroke-linecap:square;stroke-width:0.8;"/>
     </g>
     <g id="line2d_14">
      <g>
       <use style="stroke:#000000;stroke-width:0.8;" x="399.573074" xlink:href="#m6520c9e23e" y="307.584"/>
      </g>
     </g>
     <g id="text_7">
      <!-- 300 -->
      <defs>
       <path d="M 40.578125 39.3125 
Q 47.65625 37.796875 51.625 33 
Q 55.609375 28.21875 55.609375 21.1875 
Q 55.609375 10.40625 48.1875 4.484375 
Q 40.765625 -1.421875 27.09375 -1.421875 
Q 22.515625 -1.421875 17.65625 -0.515625 
Q 12.796875 0.390625 7.625 2.203125 
L 7.625 11.71875 
Q 11.71875 9.328125 16.59375 8.109375 
Q 21.484375 6.890625 26.8125 6.890625 
Q 36.078125 6.890625 40.9375 10.546875 
Q 45.796875 14.203125 45.796875 21.1875 
Q 45.796875 27.640625 41.28125 31.265625 
Q 36.765625 34.90625 28.71875 34.90625 
L 20.21875 34.90625 
L 20.21875 43.015625 
L 29.109375 43.015625 
Q 36.375 43.015625 40.234375 45.921875 
Q 44.09375 48.828125 44.09375 54.296875 
Q 44.09375 59.90625 40.109375 62.90625 
Q 36.140625 65.921875 28.71875 65.921875 
Q 24.65625 65.921875 20.015625 65.03125 
Q 15.375 64.15625 9.8125 62.3125 
L 9.8125 71.09375 
Q 15.4375 72.65625 20.34375 73.4375 
Q 25.25 74.21875 29.59375 74.21875 
Q 40.828125 74.21875 47.359375 69.109375 
Q 53.90625 64.015625 53.90625 55.328125 
Q 53.90625 49.265625 50.4375 45.09375 
Q 46.96875 40.921875 40.578125 39.3125 
" id="DejaVuSans-33"/>
      </defs>
      <g transform="translate(390.029324 322.182437)scale(0.1 -0.1)">
       <use xlink:href="#DejaVuSans-33"/>
       <use x="63.623047" xlink:href="#DejaVuSans-30"/>
       <use x="127.246094" xlink:href="#DejaVuSans-30"/>
      </g>
     </g>
    </g>
    <g id="text_8">
     <!-- Generations -->
     <defs>
      <path d="M 59.515625 10.40625 
L 59.515625 29.984375 
L 43.40625 29.984375 
L 43.40625 38.09375 
L 69.28125 38.09375 
L 69.28125 6.78125 
Q 63.578125 2.734375 56.6875 0.65625 
Q 49.8125 -1.421875 42 -1.421875 
Q 24.90625 -1.421875 15.25 8.5625 
Q 5.609375 18.5625 5.609375 36.375 
Q 5.609375 54.25 15.25 64.234375 
Q 24.90625 74.21875 42 74.21875 
Q 49.125 74.21875 55.546875 72.453125 
Q 61.96875 70.703125 67.390625 67.28125 
L 67.390625 56.78125 
Q 61.921875 61.421875 55.765625 63.765625 
Q 49.609375 66.109375 42.828125 66.109375 
Q 29.4375 66.109375 22.71875 58.640625 
Q 16.015625 51.171875 16.015625 36.375 
Q 16.015625 21.625 22.71875 14.15625 
Q 29.4375 6.6875 42.828125 6.6875 
Q 48.046875 6.6875 52.140625 7.59375 
Q 56.25 8.5 59.515625 10.40625 
" id="DejaVuSans-47"/>
      <path d="M 56.203125 29.59375 
L 56.203125 25.203125 
L 14.890625 25.203125 
Q 15.484375 15.921875 20.484375 11.0625 
Q 25.484375 6.203125 34.421875 6.203125 
Q 39.59375 6.203125 44.453125 7.46875 
Q 49.3125 8.734375 54.109375 11.28125 
L 54.109375 2.78125 
Q 49.265625 0.734375 44.1875 -0.34375 
Q 39.109375 -1.421875 33.890625 -1.421875 
Q 20.796875 -1.421875 13.15625 6.1875 
Q 5.515625 13.8125 5.515625 26.8125 
Q 5.515625 40.234375 12.765625 48.109375 
Q 20.015625 56 32.328125 56 
Q 43.359375 56 49.78125 48.890625 
Q 56.203125 41.796875 56.203125 29.59375 
M 47.21875 32.234375 
Q 47.125 39.59375 43.09375 43.984375 
Q 39.0625 48.390625 32.421875 48.390625 
Q 24.90625 48.390625 20.390625 44.140625 
Q 15.875 39.890625 15.1875 32.171875 
z
" id="DejaVuSans-65"/>
      <path d="M 54.890625 33.015625 
L 54.890625 0 
L 45.90625 0 
L 45.90625 32.71875 
Q 45.90625 40.484375 42.875 44.328125 
Q 39.84375 48.1875 33.796875 48.1875 
Q 26.515625 48.1875 22.3125 43.546875 
Q 18.109375 38.921875 18.109375 30.90625 
L 18.109375 0 
L 9.078125 0 
L 9.078125 54.6875 
L 18.109375 54.6875 
L 18.109375 46.1875 
Q 21.34375 51.125 25.703125 53.5625 
Q 30.078125 56 35.796875 56 
Q 45.21875 56 50.046875 50.171875 
Q 54.890625 44.34375 54.890625 33.015625 
" id="DejaVuSans-6e"/>
      <path d="M 41.109375 46.296875 
Q 39.59375 47.171875 37.8125 47.578125 
Q 36.03125 48 33.890625 48 
Q 26.265625 48 22.1875 43.046875 
Q 18.109375 38.09375 18.109375 28.8125 
L 18.109375 0 
L 9.078125 0 
L 9.078125 54.6875 
L 18.109375 54.6875 
L 18.109375 46.1875 
Q 20.953125 51.171875 25.484375 53.578125 
Q 30.03125 56 36.53125 56 
Q 37.453125 56 38.578125 55.875 
Q 39.703125 55.765625 41.0625 55.515625 
z
" id="DejaVuSans-72"/>
      <path d="M 34.28125 27.484375 
Q 23.390625 27.484375 19.1875 25 
Q 14.984375 22.515625 14.984375 16.5 
Q 14.984375 11.71875 18.140625 8.90625 
Q 21.296875 6.109375 26.703125 6.109375 
Q 34.1875 6.109375 38.703125 11.40625 
Q 43.21875 16.703125 43.21875 25.484375 
L 43.21875 27.484375 
z
M 52.203125 31.203125 
L 52.203125 0 
L 43.21875 0 
L 43.21875 8.296875 
Q 40.140625 3.328125 35.546875 0.953125 
Q 30.953125 -1.421875 24.3125 -1.421875 
Q 15.921875 -1.421875 10.953125 3.296875 
Q 6 8.015625 6 15.921875 
Q 6 25.140625 12.171875 29.828125 
Q 18.359375 34.515625 30.609375 34.515625 
L 43.21875 34.515625 
L 43.21875 35.40625 
Q 43.21875 41.609375 39.140625 45 
Q 35.0625 48.390625 27.6875 48.390625 
Q 23 48.390625 18.546875 47.265625 
Q 14.109375 46.140625 10.015625 43.890625 
L 10.015625 52.203125 
Q 14.9375 54.109375 19.578125 55.046875 
Q 24.21875 56 28.609375 56 
Q 40.484375 56 46.34375 49.84375 
Q 52.203125 43.703125 52.203125 31.203125 
" id="DejaVuSans-61"/>
      <path d="M 18.3125 70.21875 
L 18.3125 54.6875 
L 36.8125 54.6875 
L 36.8125 47.703125 
L 18.3125 47.703125 
L 18.3125 18.015625 
Q 18.3125 11.328125 20.140625 9.421875 
Q 21.96875 7.515625 27.59375 7.515625 
L 36.8125 7.515625 
L 36.8125 0 
L 27.59375 0 
Q 17.1875 0 13.234375 3.875 
Q 9.28125 7.765625 9.28125 18.015625 
L 9.28125 47.703125 
L 2.6875 47.703125 
L 2.6875 54.6875 
L 9.28125 54.6875 
L 9.28125 70.21875 
z
" id="DejaVuSans-74"/>
      <path d="M 9.421875 54.6875 
L 18.40625 54.6875 
L 18.40625 0 
L 9.421875 0 
z
M 9.421875 75.984375 
L 18.40625 75.984375 
L 18.40625 64.59375 
L 9.421875 64.59375 
z
" id="DejaVuSans-69"/>
      <path d="M 30.609375 48.390625 
Q 23.390625 48.390625 19.1875 42.75 
Q 14.984375 37.109375 14.984375 27.296875 
Q 14.984375 17.484375 19.15625 11.84375 
Q 23.34375 6.203125 30.609375 6.203125 
Q 37.796875 6.203125 41.984375 11.859375 
Q 46.1875 17.53125 46.1875 27.296875 
Q 46.1875 37.015625 41.984375 42.703125 
Q 37.796875 48.390625 30.609375 48.390625 
M 30.609375 56 
Q 42.328125 56 49.015625 48.375 
Q 55.71875 40.765625 55.71875 27.296875 
Q 55.71875 13.875 49.015625 6.21875 
Q 42.328125 -1.421875 30.609375 -1.421875 
Q 18.84375 -1.421875 12.171875 6.21875 
Q 5.515625 13.875 5.515625 27.296875 
Q 5.515625 40.765625 12.171875 48.375 
Q 18.84375 56 30.609375 56 
" id="DejaVuSans-6f"/>
      <path d="M 44.28125 53.078125 
L 44.28125 44.578125 
Q 40.484375 46.53125 36.375 47.5 
Q 32.28125 48.484375 27.875 48.484375 
Q 21.1875 48.484375 17.84375 46.4375 
Q 14.5 44.390625 14.5 40.28125 
Q 14.5 37.15625 16.890625 35.375 
Q 19.28125 33.59375 26.515625 31.984375 
L 29.59375 31.296875 
Q 39.15625 29.25 43.1875 25.515625 
Q 47.21875 21.78125 47.21875 15.09375 
Q 47.21875 7.46875 41.1875 3.015625 
Q 35.15625 -1.421875 24.609375 -1.421875 
Q 20.21875 -1.421875 15.453125 -0.5625 
Q 10.6875 0.296875 5.421875 2 
L 5.421875 11.28125 
Q 10.40625 8.6875 15.234375 7.390625 
Q 20.0625 6.109375 24.8125 6.109375 
Q 31.15625 6.109375 34.5625 8.28125 
Q 37.984375 10.453125 37.984375 14.40625 
Q 37.984375 18.0625 35.515625 20.015625 
Q 33.0625 21.96875 24.703125 23.78125 
L 21.578125 24.515625 
Q 13.234375 26.265625 9.515625 29.90625 
Q 5.8125 33.546875 5.8125 39.890625 
Q 5.8125 47.609375 11.28125 51.796875 
Q 16.75 56 26.8125 56 
Q 31.78125 56 36.171875 55.265625 
Q 40.578125 54.546875 44.28125 53.078125 
" id="DejaVuSans-73"/>
     </defs>
     <g transform="translate(205.662344 335.860562)scale(0.1 -0.1)">
      <use xlink:href="#DejaVuSans-47"/>
      <use x="77.490234" xlink:href="#DejaVuSans-65"/>
      <use x="139.013672" xlink:href="#DejaVuSans-6e"/>
      <use x="202.392578" xlink:href="#DejaVuSans-65"/>
      <use x="263.916016" xlink:href="#DejaVuSans-72"/>
      <use x="305.029297" xlink:href="#DejaVuSans-61"/>
      <use x="366.308594" xlink:href="#DejaVuSans-74"/>
      <use x="405.517578" xlink:href="#DejaVuSans-69"/>
      <use x="433.300781" xlink:href="#DejaVuSans-6f"/>
      <use x="494.482422" xlink:href="#DejaVuSans-6e"/>
      <use x="557.861328" xlink:href="#DejaVuSans-73"/>
     </g>
    </g>
   </g>
   <g id="matplotlib.axis_2">
    <g id="ytick_1">
     <g id="line2d_15">
      <path clip-path="url(#p552bbbfa0b)" d="M 57.6 287.591897 
L 414.72 287.591897 
" style="fill:none;stroke:#b0b0b0;stroke-linecap:square;stroke-width:0.8;"/>
     </g>
     <g id="line2d_16">
      <defs>
       <path d="M 0 0 
L -3.5 0 
" id="mc45fcab4ef" style="stroke:#000000;stroke-width:0.8;"/>
      </defs>
      <g>
       <use style="stroke:#000000;stroke-width:0.8;" x="57.6" xlink:href="#mc45fcab4ef" y="287.591897"/>
      </g>
     </g>
     <g id="text_9">
      <!-- 0 -->
      <g transform="translate(44.2375 291.391116)scale(0.1 -0.1)">
       <use xlink:href="#DejaVuSans-30"/>
      </g>
     </g>
    </g>
    <g id="ytick_2">
     <g id="line2d_17">
      <path clip-path="url(#p552bbbfa0b)" d="M 57.6 256.388711 
L 414.72 256.388711 
" style="fill:none;stroke:#b0b0b0;stroke-linecap:square;stroke-width:0.8;"/>
     </g>
     <g id="line2d_18">
      <g>
       <use style="stroke:#000000;stroke-width:0.8;" x="57.6" xlink:href="#mc45fcab4ef" y="256.388711"/>
      </g>
     </g>
     <g id="text_10">
      <!-- 200 -->
      <g transform="translate(31.5125 260.18793)scale(0.1 -0.1)">
       <use xlink:href="#DejaVuSans-32"/>
       <use x="63.623047" xlink:href="#DejaVuSans-30"/>
       <use x="127.246094" xlink:href="#DejaVuSans-30"/>
      </g>
     </g>
    </g>
    <g id="ytick_3">
     <g id="line2d_19">
      <path clip-path="url(#p552bbbfa0b)" d="M 57.6 225.185525 
L 414.72 225.185525 
" style="fill:none;stroke:#b0b0b0;stroke-linecap:square;stroke-width:0.8;"/>
     </g>
     <g id="line2d_20">
      <g>
       <use style="stroke:#000000;stroke-width:0.8;" x="57.6" xlink:href="#mc45fcab4ef" y="225.185525"/>
      </g>
     </g>
     <g id="text_11">
      <!-- 400 -->
      <defs>
       <path d="M 37.796875 64.3125 
L 12.890625 25.390625 
L 37.796875 25.390625 
z
M 35.203125 72.90625 
L 47.609375 72.90625 
L 47.609375 25.390625 
L 58.015625 25.390625 
L 58.015625 17.1875 
L 47.609375 17.1875 
L 47.609375 0 
L 37.796875 0 
L 37.796875 17.1875 
L 4.890625 17.1875 
L 4.890625 26.703125 
z
" id="DejaVuSans-34"/>
      </defs>
      <g transform="translate(31.5125 228.984743)scale(0.1 -0.1)">
       <use xlink:href="#DejaVuSans-34"/>
       <use x="63.623047" xlink:href="#DejaVuSans-30"/>
       <use x="127.246094" xlink:href="#DejaVuSans-30"/>
      </g>
     </g>
    </g>
    <g id="ytick_4">
     <g id="line2d_21">
      <path clip-path="url(#p552bbbfa0b)" d="M 57.6 193.982338 
L 414.72 193.982338 
" style="fill:none;stroke:#b0b0b0;stroke-linecap:square;stroke-width:0.8;"/>
     </g>
     <g id="line2d_22">
      <g>
       <use style="stroke:#000000;stroke-width:0.8;" x="57.6" xlink:href="#mc45fcab4ef" y="193.982338"/>
      </g>
     </g>
     <g id="text_12">
      <!-- 600 -->
      <defs>
       <path d="M 33.015625 40.375 
Q 26.375 40.375 22.484375 35.828125 
Q 18.609375 31.296875 18.609375 23.390625 
Q 18.609375 15.53125 22.484375 10.953125 
Q 26.375 6.390625 33.015625 6.390625 
Q 39.65625 6.390625 43.53125 10.953125 
Q 47.40625 15.53125 47.40625 23.390625 
Q 47.40625 31.296875 43.53125 35.828125 
Q 39.65625 40.375 33.015625 40.375 
M 52.59375 71.296875 
L 52.59375 62.3125 
Q 48.875 64.0625 45.09375 64.984375 
Q 41.3125 65.921875 37.59375 65.921875 
Q 27.828125 65.921875 22.671875 59.328125 
Q 17.53125 52.734375 16.796875 39.40625 
Q 19.671875 43.65625 24.015625 45.921875 
Q 28.375 48.1875 33.59375 48.1875 
Q 44.578125 48.1875 50.953125 41.515625 
Q 57.328125 34.859375 57.328125 23.390625 
Q 57.328125 12.15625 50.6875 5.359375 
Q 44.046875 -1.421875 33.015625 -1.421875 
Q 20.359375 -1.421875 13.671875 8.265625 
Q 6.984375 17.96875 6.984375 36.375 
Q 6.984375 53.65625 15.1875 63.9375 
Q 23.390625 74.21875 37.203125 74.21875 
Q 40.921875 74.21875 44.703125 73.484375 
Q 48.484375 72.75 52.59375 71.296875 
" id="DejaVuSans-36"/>
      </defs>
      <g transform="translate(31.5125 197.781557)scale(0.1 -0.1)">
       <use xlink:href="#DejaVuSans-36"/>
       <use x="63.623047" xlink:href="#DejaVuSans-30"/>
       <use x="127.246094" xlink:href="#DejaVuSans-30"/>
      </g>
     </g>
    </g>
    <g id="ytick_5">
     <g id="line2d_23">
      <path clip-path="url(#p552bbbfa0b)" d="M 57.6 162.779152 
L 414.72 162.779152 
" style="fill:none;stroke:#b0b0b0;stroke-linecap:square;stroke-width:0.8;"/>
     </g>
     <g id="line2d_24">
      <g>
       <use style="stroke:#000000;stroke-width:0.8;" x="57.6" xlink:href="#mc45fcab4ef" y="162.779152"/>
      </g>
     </g>
     <g id="text_13">
      <!-- 800 -->
      <defs>
       <path d="M 31.78125 34.625 
Q 24.75 34.625 20.71875 30.859375 
Q 16.703125 27.09375 16.703125 20.515625 
Q 16.703125 13.921875 20.71875 10.15625 
Q 24.75 6.390625 31.78125 6.390625 
Q 38.8125 6.390625 42.859375 10.171875 
Q 46.921875 13.96875 46.921875 20.515625 
Q 46.921875 27.09375 42.890625 30.859375 
Q 38.875 34.625 31.78125 34.625 
M 21.921875 38.8125 
Q 15.578125 40.375 12.03125 44.71875 
Q 8.5 49.078125 8.5 55.328125 
Q 8.5 64.0625 14.71875 69.140625 
Q 20.953125 74.21875 31.78125 74.21875 
Q 42.671875 74.21875 48.875 69.140625 
Q 55.078125 64.0625 55.078125 55.328125 
Q 55.078125 49.078125 51.53125 44.71875 
Q 48 40.375 41.703125 38.8125 
Q 48.828125 37.15625 52.796875 32.3125 
Q 56.78125 27.484375 56.78125 20.515625 
Q 56.78125 9.90625 50.3125 4.234375 
Q 43.84375 -1.421875 31.78125 -1.421875 
Q 19.734375 -1.421875 13.25 4.234375 
Q 6.78125 9.90625 6.78125 20.515625 
Q 6.78125 27.484375 10.78125 32.3125 
Q 14.796875 37.15625 21.921875 38.8125 
M 18.3125 54.390625 
Q 18.3125 48.734375 21.84375 45.5625 
Q 25.390625 42.390625 31.78125 42.390625 
Q 38.140625 42.390625 41.71875 45.5625 
Q 45.3125 48.734375 45.3125 54.390625 
Q 45.3125 60.0625 41.71875 63.234375 
Q 38.140625 66.40625 31.78125 66.40625 
Q 25.390625 66.40625 21.84375 63.234375 
Q 18.3125 60.0625 18.3125 54.390625 
" id="DejaVuSans-38"/>
      </defs>
      <g transform="translate(31.5125 166.578371)scale(0.1 -0.1)">
       <use xlink:href="#DejaVuSans-38"/>
       <use x="63.623047" xlink:href="#DejaVuSans-30"/>
       <use x="127.246094" xlink:href="#DejaVuSans-30"/>
      </g>
     </g>
    </g>
    <g id="ytick_6">
     <g id="line2d_25">
      <path clip-path="url(#p552bbbfa0b)" d="M 57.6 131.575966 
L 414.72 131.575966 
" style="fill:none;stroke:#b0b0b0;stroke-linecap:square;stroke-width:0.8;"/>
     </g>
     <g id="line2d_26">
      <g>
       <use style="stroke:#000000;stroke-width:0.8;" x="57.6" xlink:href="#mc45fcab4ef" y="131.575966"/>
      </g>
     </g>
     <g id="text_14">
      <!-- 1000 -->
      <g transform="translate(25.15 135.375185)scale(0.1 -0.1)">
       <use xlink:href="#DejaVuSans-31"/>
       <use x="63.623047" xlink:href="#DejaVuSans-30"/>
       <use x="127.246094" xlink:href="#DejaVuSans-30"/>
       <use x="190.869141" xlink:href="#DejaVuSans-30"/>
      </g>
     </g>
    </g>
    <g id="ytick_7">
     <g id="line2d_27">
      <path clip-path="url(#p552bbbfa0b)" d="M 57.6 100.372779 
L 414.72 100.372779 
" style="fill:none;stroke:#b0b0b0;stroke-linecap:square;stroke-width:0.8;"/>
     </g>
     <g id="line2d_28">
      <g>
       <use style="stroke:#000000;stroke-width:0.8;" x="57.6" xlink:href="#mc45fcab4ef" y="100.372779"/>
      </g>
     </g>
     <g id="text_15">
      <!-- 1200 -->
      <g transform="translate(25.15 104.171998)scale(0.1 -0.1)">
       <use xlink:href="#DejaVuSans-31"/>
       <use x="63.623047" xlink:href="#DejaVuSans-32"/>
       <use x="127.246094" xlink:href="#DejaVuSans-30"/>
       <use x="190.869141" xlink:href="#DejaVuSans-30"/>
      </g>
     </g>
    </g>
    <g id="ytick_8">
     <g id="line2d_29">
      <path clip-path="url(#p552bbbfa0b)" d="M 57.6 69.169593 
L 414.72 69.169593 
" style="fill:none;stroke:#b0b0b0;stroke-linecap:square;stroke-width:0.8;"/>
     </g>
     <g id="line2d_30">
      <g>
       <use style="stroke:#000000;stroke-width:0.8;" x="57.6" xlink:href="#mc45fcab4ef" y="69.169593"/>
      </g>
     </g>
     <g id="text_16">
      <!-- 1400 -->
      <g transform="translate(25.15 72.968812)scale(0.1 -0.1)">
       <use xlink:href="#DejaVuSans-31"/>
       <use x="63.623047" xlink:href="#DejaVuSans-34"/>
       <use x="127.246094" xlink:href="#DejaVuSans-30"/>
       <use x="190.869141" xlink:href="#DejaVuSans-30"/>
      </g>
     </g>
    </g>
    <g id="text_17">
     <!-- Fitness -->
     <defs>
      <path d="M 9.8125 72.90625 
L 51.703125 72.90625 
L 51.703125 64.59375 
L 19.671875 64.59375 
L 19.671875 43.109375 
L 48.578125 43.109375 
L 48.578125 34.8125 
L 19.671875 34.8125 
L 19.671875 0 
L 9.8125 0 
z
" id="DejaVuSans-46"/>
     </defs>
     <g transform="translate(19.070312 192.202219)rotate(-90)scale(0.1 -0.1)">
      <use xlink:href="#DejaVuSans-46"/>
      <use x="57.410156" xlink:href="#DejaVuSans-69"/>
      <use x="85.193359" xlink:href="#DejaVuSans-74"/>
      <use x="124.402344" xlink:href="#DejaVuSans-6e"/>
      <use x="187.78125" xlink:href="#DejaVuSans-65"/>
      <use x="249.304688" xlink:href="#DejaVuSans-73"/>
      <use x="301.404297" xlink:href="#DejaVuSans-73"/>
     </g>
    </g>
   </g>
   <g id="line2d_31">
    <path clip-path="url(#p552bbbfa0b)" d="M 73.832727 284.209472 
L 74.918528 284.362992 
L 76.00433 284.401684 
L 77.090131 284.103381 
L 78.175932 283.579168 
L 79.261733 283.946117 
L 80.347534 284.018508 
L 81.433335 283.395693 
L 82.519137 283.490551 
L 83.604938 283.292098 
L 84.690739 282.209972 
L 85.77654 282.769133 
L 86.862341 282.185009 
L 87.948142 281.321305 
L 89.033943 281.552209 
L 90.119745 280.573677 
L 91.205546 280.593647 
L 92.291347 281.378719 
L 93.377148 280.770881 
L 94.462949 280.317811 
L 95.54875 280.953107 
L 96.634552 280.296592 
L 97.720353 280.81831 
L 98.806154 280.597391 
L 99.891955 280.993047 
L 100.977756 280.240153 
L 102.063557 280.225449 
L 103.149358 279.520257 
L 104.23516 279.306827 
L 105.320961 279.497791 
L 106.406762 279.060946 
L 107.492563 279.822304 
L 108.578364 279.027247 
L 109.664165 278.540477 
L 110.749967 279.686258 
L 111.835768 278.88496 
L 112.921569 279.528894 
L 114.00737 278.850023 
L 115.093171 278.518011 
L 116.178972 278.787606 
L 117.264773 278.642824 
L 118.350575 279.132089 
L 119.436376 278.21846 
L 120.522177 278.590402 
L 121.607978 278.176133 
L 122.693779 277.944445 
L 123.77958 276.970358 
L 124.865382 277.726698 
L 125.951183 277.684262 
L 127.036984 278.194746 
L 128.122785 276.97907 
L 129.208586 277.327297 
L 130.294387 278.403183 
L 131.380189 277.125101 
L 132.46599 277.187507 
L 133.551791 277.000288 
L 134.637592 277.168785 
L 135.723393 277.090153 
L 136.809194 277.649314 
L 137.894995 276.624601 
L 138.980797 277.851511 
L 140.066598 277.244921 
L 142.2382 276.489542 
L 143.324001 276.379926 
L 144.409802 274.932497 
L 146.581405 277.113606 
L 148.753007 277.031394 
L 149.838808 277.599389 
L 150.924609 277.390137 
L 152.01041 276.237924 
L 153.096212 276.326364 
L 154.182013 276.936725 
L 155.267814 276.213967 
L 156.353615 275.878221 
L 157.439416 275.760897 
L 158.525217 276.61212 
L 159.611019 276.516014 
L 160.69682 276.59215 
L 161.782621 275.625071 
L 162.868422 275.098166 
L 163.954223 274.898441 
L 165.040024 273.671532 
L 166.125825 275.480069 
L 167.211627 275.534986 
L 168.297428 274.829794 
L 169.383229 275.108127 
L 170.46903 276.176887 
L 171.554831 275.623825 
L 172.640632 274.439035 
L 173.726434 272.77288 
L 174.812235 274.422905 
L 175.898036 273.452681 
L 176.983837 274.808576 
L 178.069638 272.513471 
L 179.155439 273.396944 
L 180.24124 273.999789 
L 181.327042 272.779121 
L 182.412843 272.570683 
L 183.498644 274.635086 
L 184.584445 275.376474 
L 185.670246 273.978571 
L 186.756047 274.631632 
L 187.841849 273.318472 
L 188.92765 273.646569 
L 190.013451 275.657457 
L 191.099252 273.487559 
L 192.185053 273.659457 
L 193.270854 271.660211 
L 194.356656 273.750388 
L 195.442457 274.389399 
L 196.528258 273.970866 
L 197.614059 274.050586 
L 198.69986 274.282275 
L 199.785661 275.294977 
L 200.871462 273.876225 
L 201.957264 274.011023 
L 203.043065 275.188007 
L 204.128866 274.188257 
L 205.214667 273.951112 
L 206.300468 274.238182 
L 207.386269 273.213469 
L 208.472071 274.889704 
L 209.557872 273.913669 
L 210.643673 272.309825 
L 211.729474 273.530493 
L 212.815275 273.011272 
L 213.901076 273.181018 
L 214.986877 273.80633 
L 216.072679 273.178522 
L 217.15848 270.983548 
L 219.330082 274.47283 
L 220.415883 273.609125 
L 221.501684 272.931392 
L 222.587486 273.021691 
L 223.673287 273.827618 
L 224.759088 273.285672 
L 225.844889 272.26559 
L 226.93069 273.571016 
L 228.016491 272.905847 
L 229.102292 273.816315 
L 230.188094 275.397017 
L 231.273895 275.050593 
L 232.359696 274.416664 
L 233.445497 273.944872 
L 234.531298 274.414168 
L 236.702901 273.949864 
L 237.788702 272.885212 
L 238.874503 274.969584 
L 239.960304 274.581417 
L 241.046105 275.528746 
L 242.131906 275.880426 
L 243.217708 275.988796 
L 244.303509 275.811916 
L 245.38931 275.455106 
L 246.475111 275.477572 
L 247.560912 274.843524 
L 248.646713 275.269135 
L 249.732514 274.148317 
L 250.818316 271.221458 
L 251.904117 273.183514 
L 252.989918 271.922905 
L 254.075719 272.608127 
L 255.16152 272.363494 
L 256.247321 271.875476 
L 257.333123 271.904183 
L 258.418924 270.931892 
L 259.504725 271.912765 
L 260.590526 271.508527 
L 261.676327 272.590701 
L 263.847929 270.569033 
L 264.933731 271.39994 
L 266.019532 270.55284 
L 267.105333 272.438382 
L 268.191134 271.534738 
L 269.276935 272.224952 
L 270.362736 271.844273 
L 271.448538 273.807578 
L 272.534339 272.515766 
L 273.62014 272.696744 
L 274.705941 271.457354 
L 275.791742 272.61936 
L 277.963344 272.779121 
L 280.134947 271.629595 
L 281.220748 273.529245 
L 282.306549 272.027748 
L 283.39235 272.380968 
L 284.478151 272.229945 
L 285.563953 270.938133 
L 286.649754 271.167788 
L 287.735555 271.220501 
L 289.907157 271.612122 
L 290.992958 271.977823 
L 292.07876 271.554708 
L 293.164561 269.89345 
L 294.250362 272.217463 
L 295.336163 272.825301 
L 296.421964 270.282866 
L 297.507765 271.024254 
L 298.593566 272.849016 
L 299.679368 271.368737 
L 300.765169 270.744673 
L 301.85097 271.687652 
L 302.936771 269.995551 
L 304.022572 270.720916 
L 305.108373 270.104356 
L 306.194175 272.808215 
L 307.279976 271.334975 
L 308.365777 271.387459 
L 309.451578 271.325052 
L 310.537379 271.949116 
L 311.62318 272.936385 
L 312.708981 272.756654 
L 314.880584 272.142576 
L 315.966385 270.601138 
L 317.052186 272.290503 
L 318.137987 271.880469 
L 319.223788 271.742423 
L 320.30959 272.712773 
L 321.395391 270.874478 
L 322.481192 271.730694 
L 323.566993 270.202986 
L 324.652794 271.511023 
L 325.738595 271.940379 
L 326.824396 272.755406 
L 327.910198 272.679271 
L 328.995999 270.626101 
L 331.167601 269.590155 
L 332.253402 270.256655 
L 333.339203 270.553709 
L 334.425005 270.700989 
L 335.510806 268.479322 
L 336.596607 271.810574 
L 337.682408 270.730944 
L 339.85401 269.436635 
L 340.939811 270.598642 
L 342.025613 269.391703 
L 343.111414 269.00728 
L 344.197215 267.630595 
L 345.283016 268.958603 
L 346.368817 269.925039 
L 347.454618 268.767639 
L 348.54042 270.183016 
L 349.626221 269.390455 
L 350.712022 268.124853 
L 351.797823 268.884963 
L 352.883624 269.988308 
L 353.969425 272.681767 
L 355.055227 270.447619 
L 356.141028 272.342276 
L 357.226829 270.574928 
L 358.31263 269.213221 
L 359.398431 271.464843 
L 360.484232 272.28611 
L 361.570033 272.550713 
L 362.655835 271.823055 
L 363.741636 268.188508 
L 364.827437 270.495047 
L 365.913238 269.671283 
L 366.999039 271.975327 
L 369.170642 268.601638 
L 370.256443 270.663545 
L 371.342244 268.302088 
L 372.428045 267.867248 
L 373.513846 268.218518 
L 374.599647 268.723955 
L 375.685448 268.607879 
L 376.77125 270.135587 
L 377.857051 270.045722 
L 378.942852 269.023199 
L 380.028653 270.207799 
L 381.114454 271.042375 
L 382.200255 270.828126 
L 383.286057 271.184014 
L 384.371858 271.720709 
L 385.457659 271.81307 
L 386.54346 272.935137 
L 387.629261 271.90668 
L 388.715062 273.391951 
L 389.800863 271.9928 
L 390.886665 274.060552 
L 391.972466 272.529665 
L 393.058267 273.345771 
L 394.144068 271.313819 
L 395.229869 271.763598 
L 396.31567 270.936885 
L 397.401472 271.525364 
L 398.487273 272.778792 
L 398.487273 272.778792 
" style="fill:none;stroke:#0000ff;stroke-linecap:square;stroke-width:1.5;"/>
   </g>
   <g id="line2d_32">
    <path clip-path="url(#p552bbbfa0b)" d="M 73.832727 288.904472 
L 74.918528 288.739798 
L 76.00433 289.016695 
L 77.090131 289.036797 
L 78.175932 288.313879 
L 79.261733 288.898409 
L 80.347534 288.599448 
L 81.433335 289.137344 
L 82.519137 288.884599 
L 83.604938 288.445289 
L 85.77654 288.353092 
L 87.948142 287.847165 
L 89.033943 288.311897 
L 90.119745 287.304125 
L 91.205546 287.193757 
L 92.291347 288.31493 
L 94.462949 287.703036 
L 95.54875 288.389239 
L 96.634552 287.786551 
L 97.720353 288.506529 
L 99.891955 287.834349 
L 100.977756 287.462375 
L 103.149358 287.108668 
L 104.23516 287.594145 
L 105.320961 287.225834 
L 106.406762 287.228725 
L 107.492563 288.311761 
L 109.664165 286.951735 
L 110.749967 287.567908 
L 111.835768 287.22731 
L 112.921569 287.19051 
L 114.00737 288.082248 
L 115.093171 287.555703 
L 116.178972 287.611795 
L 117.264773 287.825437 
L 119.436376 288.009851 
L 120.522177 287.663615 
L 121.607978 287.144327 
L 122.693779 288.179221 
L 123.77958 287.724728 
L 124.865382 288.103869 
L 125.951183 287.246592 
L 127.036984 288.365848 
L 128.122785 288.073406 
L 129.208586 287.076189 
L 131.380189 288.049532 
L 132.46599 289.549332 
L 133.551791 288.669365 
L 134.637592 288.755233 
L 135.723393 288.413744 
L 136.809194 287.628937 
L 137.894995 288.604163 
L 138.980797 289.00551 
L 140.066598 289.751376 
L 141.152399 288.280391 
L 142.2382 287.658876 
L 144.409802 288.972351 
L 145.495604 288.153887 
L 146.581405 288.818858 
L 147.667206 287.691631 
L 149.838808 288.054493 
L 150.924609 287.897047 
L 152.01041 290.439572 
L 153.096212 287.833958 
L 154.182013 289.895063 
L 155.267814 288.670288 
L 156.353615 288.059285 
L 157.439416 289.020338 
L 158.525217 288.728557 
L 159.611019 289.936961 
L 160.69682 289.109912 
L 161.782621 289.457208 
L 162.868422 290.185115 
L 163.954223 291.556249 
L 165.040024 288.98932 
L 166.125825 290.706936 
L 167.211627 290.83651 
L 168.297428 289.93476 
L 169.383229 289.660725 
L 170.46903 289.790736 
L 171.554831 291.779941 
L 172.640632 289.567988 
L 173.726434 289.943883 
L 174.812235 290.905603 
L 175.898036 290.917364 
L 176.983837 289.695573 
L 178.069638 291.082792 
L 179.155439 290.488151 
L 180.24124 291.590901 
L 181.327042 289.967271 
L 182.412843 292.736703 
L 183.498644 290.26732 
L 184.584445 291.380813 
L 185.670246 289.980025 
L 186.756047 292.114817 
L 187.841849 290.954925 
L 188.92765 292.65947 
L 190.013451 289.336157 
L 191.099252 288.855595 
L 192.185053 290.623136 
L 193.270854 290.702475 
L 194.356656 292.378765 
L 195.442457 290.843882 
L 196.528258 291.565148 
L 197.614059 290.861382 
L 198.69986 292.527652 
L 199.785661 290.849646 
L 200.871462 290.418476 
L 201.957264 289.448313 
L 203.043065 288.846032 
L 205.214667 291.051983 
L 206.300468 290.024053 
L 207.386269 291.782384 
L 208.472071 290.798516 
L 209.557872 292.437908 
L 210.643673 290.602344 
L 211.729474 290.708611 
L 212.815275 289.250215 
L 213.901076 291.111918 
L 214.986877 291.02368 
L 216.072679 292.012955 
L 217.15848 292.073105 
L 218.244281 292.804463 
L 221.501684 291.264234 
L 222.587486 294.62582 
L 223.673287 291.102715 
L 224.759088 291.101508 
L 225.844889 290.557713 
L 226.93069 293.234074 
L 228.016491 292.059921 
L 229.102292 290.262549 
L 230.188094 290.136968 
L 231.273895 290.676289 
L 232.359696 291.50803 
L 233.445497 289.757895 
L 234.531298 290.912819 
L 235.617099 289.540296 
L 236.702901 291.360866 
L 237.788702 291.836719 
L 238.874503 294.625025 
L 239.960304 289.999768 
L 241.046105 291.236779 
L 242.131906 292.725179 
L 243.217708 289.656597 
L 244.303509 291.877493 
L 245.38931 292.154838 
L 246.475111 290.653158 
L 247.560912 290.676905 
L 248.646713 292.177018 
L 249.732514 291.9803 
L 250.818316 293.241254 
L 251.904117 291.175957 
L 252.989918 292.012411 
L 254.075719 290.097483 
L 255.16152 290.544051 
L 256.247321 292.038841 
L 257.333123 290.501565 
L 258.418924 294.253978 
L 259.504725 291.978994 
L 260.590526 292.055336 
L 261.676327 293.444323 
L 262.762128 292.043791 
L 263.847929 290.908346 
L 264.933731 293.608395 
L 266.019532 292.407183 
L 267.105333 291.749565 
L 268.191134 291.598412 
L 269.276935 291.826739 
L 270.362736 291.825925 
L 271.448538 292.416445 
L 272.534339 292.170792 
L 273.62014 290.191095 
L 274.705941 289.754756 
L 275.791742 292.007002 
L 276.877543 290.271589 
L 277.963344 291.379594 
L 279.049146 290.435749 
L 280.134947 290.229625 
L 281.220748 291.319428 
L 282.306549 290.87894 
L 283.39235 291.770319 
L 284.478151 289.789423 
L 286.649754 291.448581 
L 287.735555 290.623544 
L 288.821356 292.102436 
L 289.907157 293.897321 
L 290.992958 292.337797 
L 292.07876 292.714083 
L 293.164561 292.68706 
L 294.250362 293.282508 
L 295.336163 292.310643 
L 296.421964 291.790951 
L 297.507765 293.575534 
L 298.593566 292.37416 
L 300.765169 292.411748 
L 301.85097 292.280005 
L 302.936771 291.71124 
L 304.022572 293.636325 
L 305.108373 294.100223 
L 306.194175 290.81631 
L 307.279976 291.053099 
L 308.365777 292.11916 
L 309.451578 292.097524 
L 310.537379 291.41732 
L 311.62318 290.478346 
L 312.708981 291.659873 
L 313.794783 290.545236 
L 314.880584 291.125528 
L 315.966385 290.539666 
L 318.137987 290.866381 
L 319.223788 291.33231 
L 320.30959 292.170084 
L 321.395391 291.5809 
L 322.481192 291.981989 
L 323.566993 291.270933 
L 324.652794 292.008854 
L 325.738595 292.556989 
L 327.910198 291.298525 
L 328.995999 290.644285 
L 330.0818 292.590803 
L 331.167601 291.255274 
L 332.253402 293.659267 
L 333.339203 293.029491 
L 334.425005 291.983754 
L 335.510806 291.382291 
L 336.596607 292.953988 
L 337.682408 292.569979 
L 338.768209 292.550068 
L 340.939811 293.397844 
L 342.025613 294.61868 
L 343.111414 295.488 
L 344.197215 292.867518 
L 345.283016 293.48999 
L 346.368817 293.446174 
L 347.454618 292.187755 
L 348.54042 293.883253 
L 349.626221 292.302438 
L 351.797823 294.434314 
L 352.883624 293.504605 
L 353.969425 293.661675 
L 355.055227 292.200955 
L 356.141028 290.495494 
L 358.31263 292.107766 
L 359.398431 292.741453 
L 360.484232 292.880037 
L 361.570033 292.546124 
L 362.655835 292.667719 
L 364.827437 291.841997 
L 365.913238 293.072752 
L 366.999039 293.382618 
L 368.08484 292.180198 
L 369.170642 292.316299 
L 370.256443 291.296814 
L 372.428045 291.476172 
L 373.513846 292.986033 
L 374.599647 291.831672 
L 375.685448 295.0521 
L 376.77125 290.62689 
L 377.857051 293.560212 
L 378.942852 292.937535 
L 380.028653 293.238671 
L 381.114454 290.239751 
L 382.200255 292.24571 
L 383.286057 291.575631 
L 385.457659 291.453728 
L 386.54346 292.143386 
L 387.629261 291.746136 
L 388.715062 291.750093 
L 389.800863 292.214584 
L 390.886665 290.063739 
L 391.972466 292.406038 
L 393.058267 293.057201 
L 394.144068 292.026389 
L 395.229869 291.687103 
L 396.31567 294.345869 
L 397.401472 294.022877 
L 398.487273 291.787561 
L 398.487273 291.787561 
" style="fill:none;stroke:#008000;stroke-dasharray:9.6,2.4,1.6,2.4;stroke-dashoffset:0;stroke-width:1.5;"/>
   </g>
   <g id="line2d_33">
    <path clip-path="url(#p552bbbfa0b)" d="M 73.832727 279.514472 
L 74.918528 279.986186 
L 76.00433 279.786672 
L 77.090131 279.169965 
L 78.175932 278.844457 
L 79.261733 278.993825 
L 80.347534 279.437569 
L 81.433335 277.654041 
L 82.519137 278.096502 
L 83.604938 278.138907 
L 84.690739 276.009321 
L 85.77654 277.185174 
L 86.862341 276.247047 
L 87.948142 274.795445 
L 89.033943 274.792521 
L 90.119745 273.843229 
L 91.205546 273.993536 
L 92.291347 274.442508 
L 93.377148 273.574014 
L 94.462949 272.932585 
L 95.54875 273.516976 
L 96.634552 272.806634 
L 97.720353 273.130091 
L 98.806154 272.970915 
L 99.891955 274.151746 
L 100.977756 273.01793 
L 102.063557 273.154568 
L 103.149358 271.931846 
L 104.23516 271.01951 
L 105.320961 271.769747 
L 106.406762 270.893168 
L 107.492563 271.332846 
L 108.578364 270.403873 
L 109.664165 270.129219 
L 110.749967 271.804608 
L 111.835768 270.54261 
L 112.921569 271.867278 
L 114.00737 269.617797 
L 115.093171 269.480318 
L 116.178972 269.963417 
L 117.264773 269.46021 
L 118.350575 270.348188 
L 119.436376 268.427069 
L 120.522177 269.517189 
L 121.607978 269.207939 
L 123.77958 266.215987 
L 124.865382 267.349527 
L 125.951183 268.121931 
L 127.036984 268.023643 
L 128.122785 265.884734 
L 130.294387 269.208544 
L 131.380189 266.200669 
L 132.46599 264.825682 
L 133.551791 265.33121 
L 135.723393 265.766562 
L 136.809194 267.669691 
L 137.894995 264.64504 
L 138.980797 266.697511 
L 140.066598 264.738466 
L 141.152399 265.441092 
L 142.2382 265.320208 
L 143.324001 264.485489 
L 144.409802 260.892643 
L 145.495604 263.828689 
L 146.581405 265.408353 
L 147.667206 266.523125 
L 148.753007 266.148043 
L 149.838808 267.144285 
L 150.924609 266.883227 
L 152.01041 262.036275 
L 153.096212 264.81877 
L 154.182013 263.978388 
L 155.267814 263.757647 
L 156.353615 263.697157 
L 157.439416 262.501456 
L 158.525217 264.495683 
L 159.611019 263.095067 
L 160.69682 264.074388 
L 161.782621 261.792933 
L 163.954223 258.240634 
L 165.040024 258.353744 
L 166.125825 260.253201 
L 167.211627 260.233463 
L 168.297428 259.724828 
L 169.383229 260.555528 
L 170.46903 262.563039 
L 171.554831 259.467709 
L 172.640632 259.310083 
L 173.726434 255.601877 
L 174.812235 257.940206 
L 175.898036 255.987998 
L 176.983837 259.921579 
L 178.069638 253.944151 
L 179.155439 256.305737 
L 180.24124 256.408678 
L 181.327042 255.59097 
L 182.412843 252.404664 
L 183.498644 259.002852 
L 184.584445 259.372135 
L 185.670246 257.977117 
L 186.756047 257.148447 
L 187.841849 255.682019 
L 188.92765 254.633668 
L 190.013451 261.978758 
L 191.099252 258.119523 
L 192.185053 256.695777 
L 193.270854 252.617946 
L 194.356656 255.122012 
L 195.442457 257.934917 
L 196.528258 256.376584 
L 197.614059 257.239791 
L 198.69986 256.036898 
L 199.785661 259.740308 
L 200.871462 257.333974 
L 201.957264 258.573732 
L 203.043065 261.529981 
L 204.128866 258.491429 
L 205.214667 256.850242 
L 206.300468 258.45231 
L 207.386269 254.644554 
L 208.472071 258.980893 
L 209.557872 255.38943 
L 210.643673 254.017306 
L 211.729474 256.352376 
L 212.815275 256.77233 
L 213.901076 255.250118 
L 214.986877 256.588979 
L 216.072679 254.344088 
L 217.15848 249.893991 
L 218.244281 252.728208 
L 219.330082 256.662773 
L 220.415883 255.495176 
L 221.501684 254.59855 
L 222.587486 251.417561 
L 223.673287 256.55252 
L 224.759088 255.469835 
L 225.844889 253.973466 
L 228.016491 253.751773 
L 230.188094 260.657065 
L 231.273895 259.424896 
L 232.359696 257.325298 
L 233.445497 258.131848 
L 234.531298 257.915517 
L 235.617099 258.858683 
L 236.702901 256.538862 
L 237.788702 253.933704 
L 238.874503 255.314144 
L 239.960304 259.163065 
L 241.046105 259.820712 
L 242.131906 259.035673 
L 243.217708 262.320995 
L 244.303509 259.746339 
L 245.38931 258.755374 
L 246.475111 260.301987 
L 247.560912 259.010142 
L 248.646713 258.361252 
L 249.732514 256.316333 
L 250.818316 249.201661 
L 251.904117 255.191071 
L 252.989918 251.8334 
L 254.075719 255.118772 
L 255.16152 254.182938 
L 256.247321 251.712112 
L 257.333123 253.306802 
L 258.418924 247.609807 
L 259.504725 251.846536 
L 260.590526 250.961718 
L 261.676327 251.737078 
L 263.847929 250.229721 
L 264.933731 249.191485 
L 266.019532 248.698497 
L 267.105333 253.127199 
L 268.191134 251.471064 
L 269.276935 252.623165 
L 270.362736 251.862622 
L 271.448538 255.198711 
L 272.534339 252.86074 
L 273.62014 255.202394 
L 274.705941 253.159951 
L 275.791742 253.231719 
L 276.877543 255.126893 
L 277.963344 254.178647 
L 279.049146 254.049103 
L 280.134947 253.029566 
L 281.220748 255.739063 
L 282.306549 253.176556 
L 283.39235 252.991617 
L 284.478151 254.670466 
L 285.563953 251.283559 
L 286.649754 250.886995 
L 287.735555 251.817458 
L 288.821356 250.712421 
L 289.907157 249.326922 
L 290.992958 251.617849 
L 292.07876 250.395332 
L 293.164561 247.09984 
L 294.250362 251.152419 
L 295.336163 253.33996 
L 296.421964 248.77478 
L 297.507765 248.472973 
L 298.593566 253.323872 
L 299.679368 250.290011 
L 300.765169 249.077598 
L 301.85097 251.095299 
L 302.936771 248.279863 
L 304.022572 247.805508 
L 305.108373 246.108489 
L 306.194175 254.800121 
L 307.279976 251.61685 
L 308.365777 250.655757 
L 309.451578 250.552581 
L 310.537379 252.480912 
L 311.62318 255.394424 
L 312.708981 253.853435 
L 313.794783 254.37646 
L 314.880584 253.159623 
L 315.966385 250.662611 
L 317.052186 253.824889 
L 318.137987 252.894557 
L 319.223788 252.152535 
L 320.30959 253.255462 
L 321.395391 250.168056 
L 322.481192 251.479398 
L 323.566993 249.135039 
L 324.652794 251.013193 
L 325.738595 251.323769 
L 326.824396 253.523519 
L 327.910198 254.060016 
L 328.995999 250.607917 
L 330.0818 247.707829 
L 331.167601 247.925036 
L 332.253402 246.854043 
L 334.425005 249.418223 
L 335.510806 245.576352 
L 336.596607 250.66716 
L 337.682408 248.891908 
L 338.768209 247.571331 
L 339.85401 245.90899 
L 340.939811 247.79944 
L 342.025613 244.164726 
L 343.111414 242.526559 
L 344.197215 242.393672 
L 346.368817 246.403905 
L 347.454618 245.347523 
L 348.54042 246.482778 
L 349.626221 246.478472 
L 350.712022 242.82161 
L 351.797823 243.335613 
L 352.883624 246.47201 
L 353.969425 251.701859 
L 355.055227 248.694282 
L 356.141028 254.189058 
L 357.226829 249.820552 
L 358.31263 246.318675 
L 359.398431 250.188232 
L 360.484232 251.692184 
L 361.570033 252.555303 
L 362.655835 250.978391 
L 363.741636 244.120549 
L 364.827437 249.148098 
L 365.913238 246.269814 
L 366.999039 250.568036 
L 368.08484 248.190826 
L 369.170642 244.886978 
L 370.256443 250.030275 
L 371.342244 245.217483 
L 372.428045 244.258325 
L 373.513846 243.451003 
L 374.599647 245.616237 
L 375.685448 242.163657 
L 376.77125 249.644283 
L 377.857051 246.531231 
L 378.942852 245.108863 
L 380.028653 247.176927 
L 381.114454 251.844999 
L 382.200255 249.410541 
L 383.286057 250.792396 
L 384.371858 251.950813 
L 385.457659 252.172412 
L 386.54346 253.726887 
L 387.629261 252.067223 
L 388.715062 255.033809 
L 389.800863 251.771017 
L 390.886665 258.057364 
L 391.972466 252.653292 
L 393.058267 253.634341 
L 394.144068 250.601249 
L 395.229869 251.840093 
L 396.31567 247.5279 
L 397.401472 249.027851 
L 398.487273 253.770023 
L 398.487273 253.770023 
" style="fill:none;stroke:#008000;stroke-dasharray:9.6,2.4,1.6,2.4;stroke-dashoffset:0;stroke-width:1.5;"/>
   </g>
   <g id="line2d_34">
    <path clip-path="url(#p552bbbfa0b)" d="M 73.832727 253.268392 
L 74.918528 250.772137 
L 76.00433 255.140584 
L 77.090131 251.396201 
L 78.175932 255.140584 
L 79.261733 251.396201 
L 80.347534 255.764647 
L 81.433335 230.802098 
L 82.519137 258.260902 
L 83.604938 256.388711 
L 84.690739 255.140584 
L 85.77654 260.757157 
L 86.862341 252.020265 
L 87.948142 249.52401 
L 89.033943 239.53899 
L 90.119745 256.388711 
L 91.205546 249.52401 
L 92.291347 240.163054 
L 93.377148 248.899946 
L 94.462949 238.290863 
L 95.54875 230.178035 
L 96.634552 248.275883 
L 97.720353 234.546481 
L 98.806154 212.70425 
L 99.891955 250.772137 
L 100.977756 250.148074 
L 102.063557 248.899946 
L 103.149358 248.275883 
L 104.23516 227.68178 
L 105.320961 243.283373 
L 106.406762 236.418672 
L 107.492563 217.072696 
L 108.578364 215.200505 
L 109.664165 241.411182 
L 110.749967 247.651819 
L 111.835768 241.411182 
L 112.921569 236.418672 
L 114.00737 219.568951 
L 115.093171 213.328314 
L 116.178972 223.313334 
L 117.264773 206.463613 
L 118.350575 225.809588 
L 119.436376 224.561461 
L 120.522177 237.666799 
L 121.607978 228.305843 
L 122.693779 200.222976 
L 123.77958 215.824569 
L 124.865382 222.68927 
L 125.951183 242.035245 
L 127.036984 202.719231 
L 128.122785 196.478593 
L 129.208586 218.944887 
L 130.294387 234.546481 
L 131.380189 199.598912 
L 132.46599 181.501064 
L 133.551791 198.350784 
L 135.723393 218.944887 
L 136.809194 222.065206 
L 137.894995 196.478593 
L 138.980797 207.087677 
L 140.066598 200.847039 
L 141.152399 210.207995 
L 142.2382 192.734211 
L 143.324001 205.839549 
L 144.409802 204.591422 
L 145.495604 206.463613 
L 146.581405 207.71174 
L 147.667206 210.832059 
L 148.753007 212.080186 
L 149.838808 191.486083 
L 150.924609 205.839549 
L 152.01041 183.373255 
L 153.096212 205.215485 
L 154.182013 197.102657 
L 155.267814 195.230466 
L 156.353615 202.095167 
L 157.439416 205.839549 
L 158.525217 193.358275 
L 159.611019 162.155088 
L 160.69682 179.628873 
L 161.782621 179.628873 
L 162.868422 167.147598 
L 163.954223 109.733735 
L 165.040024 190.86202 
L 166.125825 178.380745 
L 167.211627 179.004809 
L 168.297428 174.636363 
L 169.383229 192.110147 
L 170.46903 202.719231 
L 171.554831 147.177559 
L 172.640632 182.749191 
L 173.726434 192.734211 
L 174.812235 164.651343 
L 175.898036 117.846564 
L 176.983837 198.350784 
L 178.069638 123.463137 
L 179.155439 191.486083 
L 180.24124 135.320348 
L 181.327042 185.245446 
L 182.412843 115.350309 
L 183.498644 190.237956 
L 184.584445 173.388235 
L 185.670246 186.493574 
L 186.756047 140.936922 
L 187.841849 192.110147 
L 188.92765 77.282422 
L 190.013451 205.215485 
L 191.099252 198.350784 
L 192.185053 145.305368 
L 193.270854 144.681304 
L 194.356656 93.508078 
L 195.442457 117.2225 
L 196.528258 133.448157 
L 197.614059 188.989829 
L 198.69986 120.342819 
L 199.785661 180.877 
L 200.871462 187.117637 
L 201.957264 196.478593 
L 203.043065 207.71174 
L 204.128866 183.997319 
L 205.214667 190.86202 
L 206.300468 162.779152 
L 207.386269 122.839074 
L 208.472071 157.162579 
L 209.557872 159.03477 
L 210.643673 167.147598 
L 211.729474 192.734211 
L 212.815275 197.102657 
L 213.901076 163.403216 
L 214.986877 198.350784 
L 216.072679 159.658833 
L 217.15848 150.297878 
L 218.244281 133.448157 
L 219.330082 130.327838 
L 220.415883 173.388235 
L 221.501684 115.350309 
L 222.587486 71.041784 
L 223.673287 185.245446 
L 224.759088 182.125128 
L 225.844889 174.636363 
L 226.93069 132.20003 
L 228.016491 128.455647 
L 230.188094 193.358275 
L 231.273895 203.967358 
L 232.359696 149.673814 
L 233.445497 120.966882 
L 234.531298 198.350784 
L 235.617099 189.613892 
L 236.702901 173.388235 
L 237.788702 179.628873 
L 238.874503 119.094691 
L 239.960304 203.343294 
L 242.131906 107.23748 
L 243.217708 192.110147 
L 244.303509 159.658833 
L 245.38931 115.974373 
L 246.475111 185.245446 
L 247.560912 186.493574 
L 248.646713 193.358275 
L 249.732514 173.388235 
L 250.818316 125.959392 
L 251.904117 185.86951 
L 252.989918 115.350309 
L 254.075719 179.628873 
L 255.16152 176.508554 
L 256.247321 147.177559 
L 257.333123 194.606402 
L 258.418924 100.996843 
L 259.504725 135.320348 
L 260.590526 123.463137 
L 261.676327 107.23748 
L 262.762128 159.03477 
L 263.847929 183.997319 
L 264.933731 99.748716 
L 266.019532 87.891505 
L 267.105333 127.20752 
L 268.191134 133.448157 
L 269.276935 155.914451 
L 270.362736 172.764172 
L 272.534339 92.884015 
L 273.62014 195.230466 
L 274.705941 177.756682 
L 275.791742 107.23748 
L 276.877543 190.237956 
L 277.963344 138.440667 
L 279.049146 190.237956 
L 280.134947 174.636363 
L 281.220748 150.297878 
L 282.306549 142.809113 
L 283.39235 153.418196 
L 284.478151 175.260427 
L 285.563953 177.132618 
L 286.649754 182.125128 
L 287.735555 167.771662 
L 288.821356 158.410706 
L 289.907157 110.357799 
L 290.992958 115.974373 
L 292.07876 113.478118 
L 293.164561 140.936922 
L 294.250362 147.177559 
L 295.336163 147.801623 
L 296.421964 105.989353 
L 297.507765 116.598436 
L 298.593566 112.22999 
L 299.679368 150.297878 
L 300.765169 129.703775 
L 301.85097 127.831583 
L 302.936771 168.395726 
L 304.022572 140.936922 
L 305.108373 106.613417 
L 306.194175 145.305368 
L 307.279976 172.764172 
L 308.365777 122.21501 
L 309.451578 157.162579 
L 310.537379 149.04975 
L 311.62318 182.749191 
L 312.708981 175.88449 
L 313.794783 177.756682 
L 314.880584 190.237956 
L 315.966385 187.741701 
L 317.052186 120.966882 
L 318.137987 150.297878 
L 319.223788 160.906961 
L 320.30959 154.04226 
L 321.395391 170.267917 
L 322.481192 128.455647 
L 323.566993 149.673814 
L 324.652794 82.274931 
L 325.738595 109.109672 
L 326.824396 175.260427 
L 327.910198 190.86202 
L 328.995999 172.764172 
L 330.0818 122.839074 
L 331.167601 174.636363 
L 332.253402 76.658358 
L 333.339203 125.335329 
L 334.425005 142.809113 
L 335.510806 124.087201 
L 336.596607 172.140108 
L 337.682408 175.88449 
L 338.768209 137.192539 
L 339.85401 129.703775 
L 342.025613 82.898995 
L 343.111414 104.117162 
L 344.197215 96.628397 
L 345.283016 122.839074 
L 346.368817 144.681304 
L 347.454618 147.801623 
L 348.54042 136.568476 
L 349.626221 162.155088 
L 350.712022 110.981863 
L 351.797823 95.38027 
L 352.883624 113.478118 
L 353.969425 100.996843 
L 355.055227 147.177559 
L 356.141028 185.245446 
L 357.226829 159.03477 
L 358.31263 145.305368 
L 360.484232 168.395726 
L 361.570033 177.756682 
L 362.655835 140.312858 
L 363.741636 163.403216 
L 364.827437 177.756682 
L 365.913238 122.839074 
L 366.999039 78.530549 
L 368.08484 167.147598 
L 369.170642 135.320348 
L 370.256443 165.899471 
L 371.342244 140.936922 
L 372.428045 143.433177 
L 373.513846 142.809113 
L 374.599647 172.140108 
L 375.685448 53.568 
L 376.77125 127.20752 
L 377.857051 120.342819 
L 378.942852 137.192539 
L 380.028653 130.327838 
L 381.114454 163.403216 
L 382.200255 134.072221 
L 383.286057 174.636363 
L 384.371858 170.891981 
L 385.457659 140.312858 
L 386.54346 130.951902 
L 387.629261 182.749191 
L 389.800863 115.974373 
L 390.886665 193.358275 
L 391.972466 135.320348 
L 393.058267 150.297878 
L 394.144068 150.297878 
L 395.229869 157.162579 
L 396.31567 72.913976 
L 397.401472 120.342819 
L 398.487273 137.816603 
L 398.487273 137.816603 
" style="fill:none;stroke:#ff0000;stroke-linecap:square;stroke-width:1.5;"/>
   </g>
   <g id="patch_3">
    <path d="M 57.6 307.584 
L 57.6 41.472 
" style="fill:none;stroke:#000000;stroke-linecap:square;stroke-linejoin:miter;stroke-width:0.8;"/>
   </g>
   <g id="patch_4">
    <path d="M 414.72 307.584 
L 414.72 41.472 
" style="fill:none;stroke:#000000;stroke-linecap:square;stroke-linejoin:miter;stroke-width:0.8;"/>
   </g>
   <g id="patch_5">
    <path d="M 57.6 307.584 
L 414.72 307.584 
" style="fill:none;stroke:#000000;stroke-linecap:square;stroke-linejoin:miter;stroke-width:0.8;"/>
   </g>
   <g id="patch_6">
    <path d="M 57.6 41.472 
L 414.72 41.472 
" style="fill:none;stroke:#000000;stroke-linecap:square;stroke-linejoin:miter;stroke-width:0.8;"/>
   </g>
   <g id="text_18">
    <!-- Population's average and best fitness -->
    <defs>
     <path d="M 19.671875 64.796875 
L 19.671875 37.40625 
L 32.078125 37.40625 
Q 38.96875 37.40625 42.71875 40.96875 
Q 46.484375 44.53125 46.484375 51.125 
Q 46.484375 57.671875 42.71875 61.234375 
Q 38.96875 64.796875 32.078125 64.796875 
z
M 9.8125 72.90625 
L 32.078125 72.90625 
Q 44.34375 72.90625 50.609375 67.359375 
Q 56.890625 61.8125 56.890625 51.125 
Q 56.890625 40.328125 50.609375 34.8125 
Q 44.34375 29.296875 32.078125 29.296875 
L 19.671875 29.296875 
L 19.671875 0 
L 9.8125 0 
z
" id="DejaVuSans-50"/>
     <path d="M 18.109375 8.203125 
L 18.109375 -20.796875 
L 9.078125 -20.796875 
L 9.078125 54.6875 
L 18.109375 54.6875 
L 18.109375 46.390625 
Q 20.953125 51.265625 25.265625 53.625 
Q 29.59375 56 35.59375 56 
Q 45.5625 56 51.78125 48.09375 
Q 58.015625 40.1875 58.015625 27.296875 
Q 58.015625 14.40625 51.78125 6.484375 
Q 45.5625 -1.421875 35.59375 -1.421875 
Q 29.59375 -1.421875 25.265625 0.953125 
Q 20.953125 3.328125 18.109375 8.203125 
M 48.6875 27.296875 
Q 48.6875 37.203125 44.609375 42.84375 
Q 40.53125 48.484375 33.40625 48.484375 
Q 26.265625 48.484375 22.1875 42.84375 
Q 18.109375 37.203125 18.109375 27.296875 
Q 18.109375 17.390625 22.1875 11.75 
Q 26.265625 6.109375 33.40625 6.109375 
Q 40.53125 6.109375 44.609375 11.75 
Q 48.6875 17.390625 48.6875 27.296875 
" id="DejaVuSans-70"/>
     <path d="M 8.5 21.578125 
L 8.5 54.6875 
L 17.484375 54.6875 
L 17.484375 21.921875 
Q 17.484375 14.15625 20.5 10.265625 
Q 23.53125 6.390625 29.59375 6.390625 
Q 36.859375 6.390625 41.078125 11.03125 
Q 45.3125 15.671875 45.3125 23.6875 
L 45.3125 54.6875 
L 54.296875 54.6875 
L 54.296875 0 
L 45.3125 0 
L 45.3125 8.40625 
Q 42.046875 3.421875 37.71875 1 
Q 33.40625 -1.421875 27.6875 -1.421875 
Q 18.265625 -1.421875 13.375 4.4375 
Q 8.5 10.296875 8.5 21.578125 
M 31.109375 56 
z
" id="DejaVuSans-75"/>
     <path d="M 9.421875 75.984375 
L 18.40625 75.984375 
L 18.40625 0 
L 9.421875 0 
z
" id="DejaVuSans-6c"/>
     <path d="M 17.921875 72.90625 
L 17.921875 45.796875 
L 9.625 45.796875 
L 9.625 72.90625 
z
" id="DejaVuSans-27"/>
     <path id="DejaVuSans-20"/>
     <path d="M 2.984375 54.6875 
L 12.5 54.6875 
L 29.59375 8.796875 
L 46.6875 54.6875 
L 56.203125 54.6875 
L 35.6875 0 
L 23.484375 0 
z
" id="DejaVuSans-76"/>
     <path d="M 45.40625 27.984375 
Q 45.40625 37.75 41.375 43.109375 
Q 37.359375 48.484375 30.078125 48.484375 
Q 22.859375 48.484375 18.828125 43.109375 
Q 14.796875 37.75 14.796875 27.984375 
Q 14.796875 18.265625 18.828125 12.890625 
Q 22.859375 7.515625 30.078125 7.515625 
Q 37.359375 7.515625 41.375 12.890625 
Q 45.40625 18.265625 45.40625 27.984375 
M 54.390625 6.78125 
Q 54.390625 -7.171875 48.1875 -13.984375 
Q 42 -20.796875 29.203125 -20.796875 
Q 24.46875 -20.796875 20.265625 -20.09375 
Q 16.0625 -19.390625 12.109375 -17.921875 
L 12.109375 -9.1875 
Q 16.0625 -11.328125 19.921875 -12.34375 
Q 23.78125 -13.375 27.78125 -13.375 
Q 36.625 -13.375 41.015625 -8.765625 
Q 45.40625 -4.15625 45.40625 5.171875 
L 45.40625 9.625 
Q 42.625 4.78125 38.28125 2.390625 
Q 33.9375 0 27.875 0 
Q 17.828125 0 11.671875 7.65625 
Q 5.515625 15.328125 5.515625 27.984375 
Q 5.515625 40.671875 11.671875 48.328125 
Q 17.828125 56 27.875 56 
Q 33.9375 56 38.28125 53.609375 
Q 42.625 51.21875 45.40625 46.390625 
L 45.40625 54.6875 
L 54.390625 54.6875 
z
" id="DejaVuSans-67"/>
     <path d="M 45.40625 46.390625 
L 45.40625 75.984375 
L 54.390625 75.984375 
L 54.390625 0 
L 45.40625 0 
L 45.40625 8.203125 
Q 42.578125 3.328125 38.25 0.953125 
Q 33.9375 -1.421875 27.875 -1.421875 
Q 17.96875 -1.421875 11.734375 6.484375 
Q 5.515625 14.40625 5.515625 27.296875 
Q 5.515625 40.1875 11.734375 48.09375 
Q 17.96875 56 27.875 56 
Q 33.9375 56 38.25 53.625 
Q 42.578125 51.265625 45.40625 46.390625 
M 14.796875 27.296875 
Q 14.796875 17.390625 18.875 11.75 
Q 22.953125 6.109375 30.078125 6.109375 
Q 37.203125 6.109375 41.296875 11.75 
Q 45.40625 17.390625 45.40625 27.296875 
Q 45.40625 37.203125 41.296875 42.84375 
Q 37.203125 48.484375 30.078125 48.484375 
Q 22.953125 48.484375 18.875 42.84375 
Q 14.796875 37.203125 14.796875 27.296875 
" id="DejaVuSans-64"/>
     <path d="M 48.6875 27.296875 
Q 48.6875 37.203125 44.609375 42.84375 
Q 40.53125 48.484375 33.40625 48.484375 
Q 26.265625 48.484375 22.1875 42.84375 
Q 18.109375 37.203125 18.109375 27.296875 
Q 18.109375 17.390625 22.1875 11.75 
Q 26.265625 6.109375 33.40625 6.109375 
Q 40.53125 6.109375 44.609375 11.75 
Q 48.6875 17.390625 48.6875 27.296875 
M 18.109375 46.390625 
Q 20.953125 51.265625 25.265625 53.625 
Q 29.59375 56 35.59375 56 
Q 45.5625 56 51.78125 48.09375 
Q 58.015625 40.1875 58.015625 27.296875 
Q 58.015625 14.40625 51.78125 6.484375 
Q 45.5625 -1.421875 35.59375 -1.421875 
Q 29.59375 -1.421875 25.265625 0.953125 
Q 20.953125 3.328125 18.109375 8.203125 
L 18.109375 0 
L 9.078125 0 
L 9.078125 75.984375 
L 18.109375 75.984375 
z
" id="DejaVuSans-62"/>
     <path d="M 37.109375 75.984375 
L 37.109375 68.5 
L 28.515625 68.5 
Q 23.6875 68.5 21.796875 66.546875 
Q 19.921875 64.59375 19.921875 59.515625 
L 19.921875 54.6875 
L 34.71875 54.6875 
L 34.71875 47.703125 
L 19.921875 47.703125 
L 19.921875 0 
L 10.890625 0 
L 10.890625 47.703125 
L 2.296875 47.703125 
L 2.296875 54.6875 
L 10.890625 54.6875 
L 10.890625 58.5 
Q 10.890625 67.625 15.140625 71.796875 
Q 19.390625 75.984375 28.609375 75.984375 
z
" id="DejaVuSans-66"/>
    </defs>
    <g transform="translate(123.315 35.472)scale(0.12 -0.12)">
     <use xlink:href="#DejaVuSans-50"/>
     <use x="60.255859" xlink:href="#DejaVuSans-6f"/>
     <use x="121.4375" xlink:href="#DejaVuSans-70"/>
     <use x="184.914062" xlink:href="#DejaVuSans-75"/>
     <use x="248.292969" xlink:href="#DejaVuSans-6c"/>
     <use x="276.076172" xlink:href="#DejaVuSans-61"/>
     <use x="337.355469" xlink:href="#DejaVuSans-74"/>
     <use x="376.564453" xlink:href="#DejaVuSans-69"/>
     <use x="404.347656" xlink:href="#DejaVuSans-6f"/>
     <use x="465.529297" xlink:href="#DejaVuSans-6e"/>
     <use x="528.908203" xlink:href="#DejaVuSans-27"/>
     <use x="556.398438" xlink:href="#DejaVuSans-73"/>
     <use x="608.498047" xlink:href="#DejaVuSans-20"/>
     <use x="640.285156" xlink:href="#DejaVuSans-61"/>
     <use x="701.564453" xlink:href="#DejaVuSans-76"/>
     <use x="760.744141" xlink:href="#DejaVuSans-65"/>
     <use x="822.267578" xlink:href="#DejaVuSans-72"/>
     <use x="863.380859" xlink:href="#DejaVuSans-61"/>
     <use x="924.660156" xlink:href="#DejaVuSans-67"/>
     <use x="988.136719" xlink:href="#DejaVuSans-65"/>
     <use x="1049.660156" xlink:href="#DejaVuSans-20"/>
     <use x="1081.447266" xlink:href="#DejaVuSans-61"/>
     <use x="1142.726562" xlink:href="#DejaVuSans-6e"/>
     <use x="1206.105469" xlink:href="#DejaVuSans-64"/>
     <use x="1269.582031" xlink:href="#DejaVuSans-20"/>
     <use x="1301.369141" xlink:href="#DejaVuSans-62"/>
     <use x="1364.845703" xlink:href="#DejaVuSans-65"/>
     <use x="1426.369141" xlink:href="#DejaVuSans-73"/>
     <use x="1478.46875" xlink:href="#DejaVuSans-74"/>
     <use x="1517.677734" xlink:href="#DejaVuSans-20"/>
     <use x="1549.464844" xlink:href="#DejaVuSans-66"/>
     <use x="1584.669922" xlink:href="#DejaVuSans-69"/>
     <use x="1612.453125" xlink:href="#DejaVuSans-74"/>
     <use x="1651.662109" xlink:href="#DejaVuSans-6e"/>
     <use x="1715.041016" xlink:href="#DejaVuSans-65"/>
     <use x="1776.564453" xlink:href="#DejaVuSans-73"/>
     <use x="1828.664062" xlink:href="#DejaVuSans-73"/>
    </g>
   </g>
   <g id="legend_1">
    <g id="patch_7">
     <path d="M 64.6 108.1845 
L 137.540625 108.1845 
Q 139.540625 108.1845 139.540625 106.1845 
L 139.540625 48.472 
Q 139.540625 46.472 137.540625 46.472 
L 64.6 46.472 
Q 62.6 46.472 62.6 48.472 
L 62.6 106.1845 
Q 62.6 108.1845 64.6 108.1845 
z
" style="fill:#ffffff;opacity:0.8;stroke:#cccccc;stroke-linejoin:miter;"/>
    </g>
    <g id="line2d_35">
     <path d="M 66.6 54.570438 
L 86.6 54.570438 
" style="fill:none;stroke:#0000ff;stroke-linecap:square;stroke-width:1.5;"/>
    </g>
    <g id="line2d_36"/>
    <g id="text_19">
     <!-- average -->
     <g transform="translate(94.6 58.070438)scale(0.1 -0.1)">
      <use xlink:href="#DejaVuSans-61"/>
      <use x="61.279297" xlink:href="#DejaVuSans-76"/>
      <use x="120.458984" xlink:href="#DejaVuSans-65"/>
      <use x="181.982422" xlink:href="#DejaVuSans-72"/>
      <use x="223.095703" xlink:href="#DejaVuSans-61"/>
      <use x="284.375" xlink:href="#DejaVuSans-67"/>
      <use x="347.851562" xlink:href="#DejaVuSans-65"/>
     </g>
    </g>
    <g id="line2d_37">
     <path d="M 66.6 69.248563 
L 86.6 69.248563 
" style="fill:none;stroke:#008000;stroke-dasharray:9.6,2.4,1.6,2.4;stroke-dashoffset:0;stroke-width:1.5;"/>
    </g>
    <g id="line2d_38"/>
    <g id="text_20">
     <!-- -1 sd -->
     <defs>
      <path d="M 4.890625 31.390625 
L 31.203125 31.390625 
L 31.203125 23.390625 
L 4.890625 23.390625 
z
" id="DejaVuSans-2d"/>
     </defs>
     <g transform="translate(94.6 72.748563)scale(0.1 -0.1)">
      <use xlink:href="#DejaVuSans-2d"/>
      <use x="36.083984" xlink:href="#DejaVuSans-31"/>
      <use x="99.707031" xlink:href="#DejaVuSans-20"/>
      <use x="131.494141" xlink:href="#DejaVuSans-73"/>
      <use x="183.59375" xlink:href="#DejaVuSans-64"/>
     </g>
    </g>
    <g id="line2d_39">
     <path d="M 66.6 83.926688 
L 86.6 83.926688 
" style="fill:none;stroke:#008000;stroke-dasharray:9.6,2.4,1.6,2.4;stroke-dashoffset:0;stroke-width:1.5;"/>
    </g>
    <g id="line2d_40"/>
    <g id="text_21">
     <!-- +1 sd -->
     <defs>
      <path d="M 46 62.703125 
L 46 35.5 
L 73.1875 35.5 
L 73.1875 27.203125 
L 46 27.203125 
L 46 0 
L 37.796875 0 
L 37.796875 27.203125 
L 10.59375 27.203125 
L 10.59375 35.5 
L 37.796875 35.5 
L 37.796875 62.703125 
z
" id="DejaVuSans-2b"/>
     </defs>
     <g transform="translate(94.6 87.426688)scale(0.1 -0.1)">
      <use xlink:href="#DejaVuSans-2b"/>
      <use x="83.789062" xlink:href="#DejaVuSans-31"/>
      <use x="147.412109" xlink:href="#DejaVuSans-20"/>
      <use x="179.199219" xlink:href="#DejaVuSans-73"/>
      <use x="231.298828" xlink:href="#DejaVuSans-64"/>
     </g>
    </g>
    <g id="line2d_41">
     <path d="M 66.6 98.604813 
L 86.6 98.604813 
" style="fill:none;stroke:#ff0000;stroke-linecap:square;stroke-width:1.5;"/>
    </g>
    <g id="line2d_42"/>
    <g id="text_22">
     <!-- best -->
     <g transform="translate(94.6 102.104813)scale(0.1 -0.1)">
      <use xlink:href="#DejaVuSans-62"/>
      <use x="63.476562" xlink:href="#DejaVuSans-65"/>
      <use x="125" xlink:href="#DejaVuSans-73"/>
      <use x="177.099609" xlink:href="#DejaVuSans-74"/>
     </g>
    </g>
   </g>
  </g>
 </g>
 <defs>
  <clipPath id="p552bbbfa0b">
   <rect height="266.112" width="357.12" x="57.6" y="41.472"/>
  </clipPath>
 </defs>
</svg>
