<?xml version="1.0" encoding="UTF-8" standalone="no"?>
<!DOCTYPE svg PUBLIC "-//W3C//DTD SVG 1.1//EN"
 "http://www.w3.org/Graphics/SVG/1.1/DTD/svg11.dtd">
<!-- Generated by graphviz version 2.38.0 (20140413.2041)
 -->
<!-- Title: %3 Pages: 1 -->
<svg width="1014pt" height="183pt"
 viewBox="0.00 0.00 1014.38 183.24" xmlns="http://www.w3.org/2000/svg" xmlns:xlink="http://www.w3.org/1999/xlink">
<g id="graph0" class="graph" transform="scale(1 1) rotate(0) translate(4 179.238)">
<title>%3</title>
<polygon fill="white" stroke="none" points="-4,4 -4,-179.238 1010.38,-179.238 1010.38,4 -4,4"/>
<g id="node1" class="node"><title></title>
<polygon fill="lightgray" stroke="black" points="14,-163.853 0,-163.853 0,-149.853 14,-149.853 14,-163.853"/>
</g>
<!-- 5 -->
<g id="node21" class="node"><title>5</title>
<ellipse fill="white" stroke="black" cx="97" cy="-84.0833" rx="14.7" ry="14.7"/>
<text text-anchor="middle" x="97" y="-81.8833" font-family="Times,serif" font-size="9.00">5</text>
</g>
<!-- &#45;&gt;5 -->
<g id="edge11" class="edge"><title>&#45;&gt;5</title>
<path fill="none" stroke="green" stroke-width="0.233562" d="M12.0537,-149.773C15.0716,-146.298 19.0716,-141.952 23,-138.468 43.4882,-120.3 50.8008,-118.5 73,-102.468 74.2513,-101.564 75.5389,-100.634 76.8371,-99.6949"/>
<polygon fill="green" stroke="green" stroke-width="0.233562" points="79.2382,-102.278 85.2861,-93.5786 75.1334,-96.6075 79.2382,-102.278"/>
</g>
<!-- 9 -->
<g id="node25" class="node"><title>9</title>
<ellipse fill="white" stroke="black" cx="71" cy="-14.8492" rx="14.7" ry="14.7"/>
<text text-anchor="middle" x="71" y="-12.6492" font-family="Times,serif" font-size="9.00">9</text>
</g>
<!-- &#45;&gt;9 -->
<g id="edge5" class="edge"><title>&#45;&gt;9</title>
<path fill="none" stroke="green" stroke-width="0.531485" stroke-dasharray="1,5" d="M6.48058,-149.761C5.46026,-134.618 4.42863,-94.4255 19,-65.6985 26.3032,-51.3004 39.4639,-38.7472 50.7175,-29.8396"/>
<polygon fill="green" stroke="green" stroke-width="0.531485" points="52.9174,-32.5648 58.8227,-23.7683 48.7208,-26.9622 52.9174,-32.5648"/>
</g>
<!-- 11 -->
<g id="node27" class="node"><title>11</title>
<ellipse fill="white" stroke="black" cx="46" cy="-84.0833" rx="18.2703" ry="18.2703"/>
<text text-anchor="middle" x="46" y="-81.8833" font-family="Times,serif" font-size="9.00">11</text>
</g>
<!-- &#45;&gt;11 -->
<g id="edge10" class="edge"><title>&#45;&gt;11</title>
<path fill="none" stroke="green" stroke-width="0.327505" d="M10.3251,-149.819C15.2209,-140.935 24.6472,-123.83 32.581,-109.433"/>
<polygon fill="green" stroke="green" stroke-width="0.327505" points="35.7554,-110.925 37.5165,-100.477 29.6247,-107.546 35.7554,-110.925"/>
</g>
<!-- &#45;3 -->
<g id="node2" class="node"><title>&#45;3</title>
<polygon fill="lightgray" stroke="black" points="386,-165.853 362,-165.853 362,-147.853 386,-147.853 386,-165.853"/>
<text text-anchor="middle" x="374" y="-154.653" font-family="Times,serif" font-size="9.00">&#45;3</text>
</g>
<!-- &#45;4 -->
<g id="node3" class="node"><title>&#45;4</title>
<polygon fill="lightgray" stroke="black" points="428,-165.853 404,-165.853 404,-147.853 428,-147.853 428,-165.853"/>
<text text-anchor="middle" x="416" y="-154.653" font-family="Times,serif" font-size="9.00">&#45;4</text>
</g>
<!-- &#45;5 -->
<g id="node4" class="node"><title>&#45;5</title>
<polygon fill="lightgray" stroke="black" points="250,-165.853 226,-165.853 226,-147.853 250,-147.853 250,-165.853"/>
<text text-anchor="middle" x="238" y="-154.653" font-family="Times,serif" font-size="9.00">&#45;5</text>
</g>
<!-- Y -->
<g id="node17" class="node"><title>Y</title>
<ellipse fill="lightblue" stroke="black" cx="286" cy="-84.0833" rx="16.0303" ry="16.0303"/>
<text text-anchor="middle" x="286" y="-81.8833" font-family="Times,serif" font-size="9.00">Y</text>
</g>
<!-- &#45;5&#45;&gt;Y -->
<g id="edge3" class="edge"><title>&#45;5&#45;&gt;Y</title>
<path fill="none" stroke="green" stroke-width="0.716696" d="M243.506,-147.735C250.294,-137.728 262.088,-120.339 271.531,-106.415"/>
<polygon fill="green" stroke="green" stroke-width="0.716696" points="274.605,-108.119 277.321,-97.8786 268.812,-104.19 274.605,-108.119"/>
</g>
<!-- 13 -->
<g id="node29" class="node"><title>13</title>
<ellipse fill="white" stroke="black" cx="233" cy="-84.0833" rx="18.2703" ry="18.2703"/>
<text text-anchor="middle" x="233" y="-81.8833" font-family="Times,serif" font-size="9.00">13</text>
</g>
<!-- &#45;5&#45;&gt;13 -->
<g id="edge9" class="edge"><title>&#45;5&#45;&gt;13</title>
<path fill="none" stroke="green" stroke-width="0.252979" d="M237.426,-147.735C236.821,-139.169 235.834,-125.193 234.945,-112.613"/>
<polygon fill="green" stroke="green" stroke-width="0.252979" points="238.428,-112.251 234.232,-102.523 231.446,-112.745 238.428,-112.251"/>
</g>
<!-- &#45;6 -->
<g id="node5" class="node"><title>&#45;6</title>
<polygon fill="lightgray" stroke="black" points="470,-165.853 446,-165.853 446,-147.853 470,-147.853 470,-165.853"/>
<text text-anchor="middle" x="458" y="-154.653" font-family="Times,serif" font-size="9.00">&#45;6</text>
</g>
<!-- &#45;7 -->
<g id="node6" class="node"><title>&#45;7</title>
<polygon fill="lightgray" stroke="black" points="512,-165.853 488,-165.853 488,-147.853 512,-147.853 512,-165.853"/>
<text text-anchor="middle" x="500" y="-154.653" font-family="Times,serif" font-size="9.00">&#45;7</text>
</g>
<!-- &#45;8 -->
<g id="node7" class="node"><title>&#45;8</title>
<polygon fill="lightgray" stroke="black" points="56,-165.853 32,-165.853 32,-147.853 56,-147.853 56,-165.853"/>
<text text-anchor="middle" x="44" y="-154.653" font-family="Times,serif" font-size="9.00">&#45;8</text>
</g>
<!-- &#45;8&#45;&gt;5 -->
<g id="edge7" class="edge"><title>&#45;8&#45;&gt;5</title>
<path fill="none" stroke="green" stroke-width="0.543507" stroke-dasharray="1,5" d="M50.0798,-147.735C57.9157,-137.272 71.7956,-118.738 82.4331,-104.534"/>
<polygon fill="green" stroke="green" stroke-width="0.543507" points="85.3614,-106.463 88.5544,-96.3605 79.7585,-102.267 85.3614,-106.463"/>
</g>
<!-- &#45;9 -->
<g id="node8" class="node"><title>&#45;9</title>
<polygon fill="lightgray" stroke="black" points="296,-165.853 272,-165.853 272,-147.853 296,-147.853 296,-165.853"/>
<text text-anchor="middle" x="284" y="-154.653" font-family="Times,serif" font-size="9.00">&#45;9</text>
</g>
<!-- &#45;9&#45;&gt;Y -->
<g id="edge12" class="edge"><title>&#45;9&#45;&gt;Y</title>
<path fill="none" stroke="green" stroke-width="1.32385" d="M284.229,-147.735C284.483,-138.772 284.903,-123.886 285.271,-110.873"/>
<polygon fill="green" stroke="green" stroke-width="1.32385" points="288.779,-110.649 285.563,-100.554 281.782,-110.451 288.779,-110.649"/>
</g>
<!-- &#45;10 -->
<g id="node9" class="node"><title>&#45;10</title>
<polygon fill="lightgray" stroke="black" points="559.5,-165.853 530.5,-165.853 530.5,-147.853 559.5,-147.853 559.5,-165.853"/>
<text text-anchor="middle" x="545" y="-154.653" font-family="Times,serif" font-size="9.00">&#45;10</text>
</g>
<!-- &#45;11 -->
<g id="node10" class="node"><title>&#45;11</title>
<polygon fill="lightgray" stroke="black" points="606.5,-165.853 577.5,-165.853 577.5,-147.853 606.5,-147.853 606.5,-165.853"/>
<text text-anchor="middle" x="592" y="-154.653" font-family="Times,serif" font-size="9.00">&#45;11</text>
</g>
<!-- &#45;12 -->
<g id="node11" class="node"><title>&#45;12</title>
<polygon fill="lightgray" stroke="black" points="653.5,-165.853 624.5,-165.853 624.5,-147.853 653.5,-147.853 653.5,-165.853"/>
<text text-anchor="middle" x="639" y="-154.653" font-family="Times,serif" font-size="9.00">&#45;12</text>
</g>
<!-- &#45;13 -->
<g id="node12" class="node"><title>&#45;13</title>
<polygon fill="lightgray" stroke="black" points="700.5,-165.853 671.5,-165.853 671.5,-147.853 700.5,-147.853 700.5,-165.853"/>
<text text-anchor="middle" x="686" y="-154.653" font-family="Times,serif" font-size="9.00">&#45;13</text>
</g>
<!-- X -->
<g id="node16" class="node"><title>X</title>
<ellipse fill="lightblue" stroke="black" cx="686" cy="-84.0833" rx="16.0303" ry="16.0303"/>
<text text-anchor="middle" x="686" y="-81.8833" font-family="Times,serif" font-size="9.00">X</text>
</g>
<!-- &#45;13&#45;&gt;X -->
<g id="edge13" class="edge"><title>&#45;13&#45;&gt;X</title>
<path fill="none" stroke="red" stroke-width="4.9817" d="M686,-147.735C686,-138.772 686,-123.886 686,-110.873"/>
<polygon fill="red" stroke="red" stroke-width="4.9817" points="690.359,-110.554 686,-100.554 681.641,-110.554 690.359,-110.554"/>
</g>
<!-- &#45;14 -->
<g id="node13" class="node"><title>&#45;14</title>
<polygon fill="lightgray" stroke="black" points="343.5,-165.853 314.5,-165.853 314.5,-147.853 343.5,-147.853 343.5,-165.853"/>
<text text-anchor="middle" x="329" y="-154.653" font-family="Times,serif" font-size="9.00">&#45;14</text>
</g>
<!-- &#45;14&#45;&gt;Y -->
<g id="edge16" class="edge"><title>&#45;14&#45;&gt;Y</title>
<path fill="none" stroke="red" stroke-width="0.866421" d="M324.067,-147.735C318.117,-137.941 307.87,-121.076 299.505,-107.31"/>
<polygon fill="red" stroke="red" stroke-width="0.866421" points="302.275,-105.128 294.091,-98.3997 296.293,-108.763 302.275,-105.128"/>
</g>
<!-- &#45;15 -->
<g id="node14" class="node"><title>&#45;15</title>
<polygon fill="lightgray" stroke="black" points="747.5,-165.853 718.5,-165.853 718.5,-147.853 747.5,-147.853 747.5,-165.853"/>
<text text-anchor="middle" x="733" y="-154.653" font-family="Times,serif" font-size="9.00">&#45;15</text>
</g>
<!-- &#45;16 -->
<g id="node15" class="node"><title>&#45;16</title>
<polygon fill="lightgray" stroke="black" points="794.5,-165.853 765.5,-165.853 765.5,-147.853 794.5,-147.853 794.5,-165.853"/>
<text text-anchor="middle" x="780" y="-154.653" font-family="Times,serif" font-size="9.00">&#45;16</text>
</g>
<!-- 2 -->
<g id="node18" class="node"><title>2</title>
<ellipse fill="white" stroke="black" cx="827" cy="-156.853" rx="14.7" ry="14.7"/>
<text text-anchor="middle" x="827" y="-154.653" font-family="Times,serif" font-size="9.00">2</text>
</g>
<!-- 3 -->
<g id="node19" class="node"><title>3</title>
<ellipse fill="white" stroke="black" cx="89" cy="-156.853" rx="14.7" ry="14.7"/>
<text text-anchor="middle" x="89" y="-154.653" font-family="Times,serif" font-size="9.00">3</text>
</g>
<!-- 3&#45;&gt;5 -->
<g id="edge17" class="edge"><title>3&#45;&gt;5</title>
<path fill="none" stroke="red" stroke-width="0.694526" d="M90.5805,-141.871C91.6324,-132.566 93.0419,-120.098 94.2721,-109.215"/>
<polygon fill="red" stroke="red" stroke-width="0.694526" points="97.7772,-109.366 95.4227,-99.036 90.8215,-108.58 97.7772,-109.366"/>
</g>
<!-- 4 -->
<g id="node20" class="node"><title>4</title>
<ellipse fill="white" stroke="black" cx="185" cy="-156.853" rx="14.7" ry="14.7"/>
<text text-anchor="middle" x="185" y="-154.653" font-family="Times,serif" font-size="9.00">4</text>
</g>
<!-- 4&#45;&gt;5 -->
<g id="edge4" class="edge"><title>4&#45;&gt;5</title>
<path fill="none" stroke="red" stroke-width="0.364761" d="M173.855,-146.89C159.387,-135.255 133.91,-114.766 116.277,-100.585"/>
<polygon fill="red" stroke="red" stroke-width="0.364761" points="118.319,-97.7365 108.333,-94.197 113.932,-103.191 118.319,-97.7365"/>
</g>
<!-- 7 -->
<g id="node23" class="node"><title>7</title>
<ellipse fill="white" stroke="black" cx="182" cy="-84.0833" rx="14.7" ry="14.7"/>
<text text-anchor="middle" x="182" y="-81.8833" font-family="Times,serif" font-size="9.00">7</text>
</g>
<!-- 4&#45;&gt;7 -->
<g id="edge2" class="edge"><title>4&#45;&gt;7</title>
<path fill="none" stroke="green" stroke-width="0.427189" d="M184.407,-141.871C184.013,-132.566 183.484,-120.098 183.023,-109.215"/>
<polygon fill="green" stroke="green" stroke-width="0.427189" points="186.512,-108.879 182.591,-99.036 179.518,-109.175 186.512,-108.879"/>
</g>
<!-- 5&#45;&gt;9 -->
<g id="edge1" class="edge"><title>5&#45;&gt;9</title>
<path fill="none" stroke="red" stroke-width="0.367314" stroke-dasharray="1,5" d="M91.8632,-69.8C88.409,-60.8676 83.7684,-48.8673 79.7409,-38.4525"/>
<polygon fill="red" stroke="red" stroke-width="0.367314" points="82.9974,-37.1694 76.1261,-29.1049 76.4685,-39.6942 82.9974,-37.1694"/>
</g>
<!-- 6 -->
<g id="node22" class="node"><title>6</title>
<ellipse fill="white" stroke="black" cx="878" cy="-84.0833" rx="14.7" ry="14.7"/>
<text text-anchor="middle" x="878" y="-81.8833" font-family="Times,serif" font-size="9.00">6</text>
</g>
<!-- 8 -->
<g id="node24" class="node"><title>8</title>
<ellipse fill="white" stroke="black" cx="137" cy="-156.853" rx="14.7" ry="14.7"/>
<text text-anchor="middle" x="137" y="-154.653" font-family="Times,serif" font-size="9.00">8</text>
</g>
<!-- 8&#45;&gt;5 -->
<g id="edge15" class="edge"><title>8&#45;&gt;5</title>
<path fill="none" stroke="green" stroke-width="0.518161" d="M130.033,-143.526C124.239,-133.276 115.863,-118.456 108.994,-106.304"/>
<polygon fill="green" stroke="green" stroke-width="0.518161" points="111.855,-104.253 103.888,-97.2691 105.761,-107.697 111.855,-104.253"/>
</g>
<!-- 10 -->
<g id="node26" class="node"><title>10</title>
<ellipse fill="white" stroke="black" cx="933" cy="-156.853" rx="18.2703" ry="18.2703"/>
<text text-anchor="middle" x="933" y="-154.653" font-family="Times,serif" font-size="9.00">10</text>
</g>
<!-- 11&#45;&gt;9 -->
<g id="edge6" class="edge"><title>11&#45;&gt;9</title>
<path fill="none" stroke="green" stroke-width="0.504128" d="M52.1798,-66.4636C55.2895,-58.1006 59.1073,-47.833 62.4898,-38.7364"/>
<polygon fill="green" stroke="green" stroke-width="0.504128" points="65.8579,-39.7204 66.0627,-29.1275 59.2968,-37.2807 65.8579,-39.7204"/>
</g>
<!-- 12 -->
<g id="node28" class="node"><title>12</title>
<ellipse fill="white" stroke="black" cx="878" cy="-156.853" rx="18.2703" ry="18.2703"/>
<text text-anchor="middle" x="878" y="-154.653" font-family="Times,serif" font-size="9.00">12</text>
</g>
<!-- 12&#45;&gt;6 -->
<g id="edge8" class="edge"><title>12&#45;&gt;6</title>
<path fill="none" stroke="green" stroke-width="0.101887" d="M878,-138.359C878,-129.556 878,-118.749 878,-109.174"/>
<polygon fill="green" stroke="green" stroke-width="0.101887" points="881.5,-109.06 878,-99.0598 874.5,-109.06 881.5,-109.06"/>
</g>
<!-- 13&#45;&gt;9 -->
<g id="edge14" class="edge"><title>13&#45;&gt;9</title>
<path fill="none" stroke="green" stroke-width="1.11186" d="M218.205,-72.7361C214.331,-70.2572 210.091,-67.7399 206,-65.6985 168.7,-47.0838 122.674,-31.5581 95.1417,-23.0023"/>
<polygon fill="green" stroke="green" stroke-width="1.11186" points="95.8049,-19.5453 85.2187,-19.9726 93.7608,-26.2402 95.8049,-19.5453"/>
</g>
<!-- 14 -->
<g id="node30" class="node"><title>14</title>
<ellipse fill="white" stroke="black" cx="988" cy="-156.853" rx="18.2703" ry="18.2703"/>
<text text-anchor="middle" x="988" y="-154.653" font-family="Times,serif" font-size="9.00">14</text>
</g>
</g>
</svg>
